# This file uses centimeters as units for non-parametric coordinates.

mtllib piernaDer.mtl
g default
v -0.236992 -0.496599 0.142069
v -0.209927 -0.497709 -0.100866
v -0.237120 -0.490239 0.143910
v -0.219830 -0.483784 0.127391
v -0.226969 -0.496580 0.142177
v -0.236838 -0.499920 0.120609
v -0.214989 -0.500756 0.127611
v -0.182074 -0.484941 0.029469
v -0.192255 -0.497578 0.033155
v -0.192879 -0.488948 -0.113799
v -0.279667 -0.484157 0.115778
v -0.274145 -0.490571 0.133727
v -0.176903 -0.500021 -0.044055
v -0.165980 -0.486989 -0.043784
v -0.260422 -0.498147 0.016545
v -0.237385 -0.479734 0.126690
v -0.231123 -0.490447 0.144345
v -0.203001 -0.498121 0.095778
v -0.205727 -0.476439 0.095521
v -0.262001 -0.479888 0.121244
v -0.269513 -0.490324 0.134810
v -0.257838 -0.500064 0.116215
v -0.274720 -0.497406 0.131046
v -0.268034 -0.496901 0.132971
v -0.281760 -0.501206 0.114261
v -0.276514 -0.500697 0.081032
v -0.278115 -0.477010 0.079935
v -0.244553 -0.498819 0.141416
v -0.260609 -0.498933 0.137809
v -0.261496 -0.493208 0.141314
v -0.245783 -0.492802 0.144849
v -0.241179 -0.470552 0.091526
v -0.170252 -0.488797 -0.102065
v -0.177639 -0.497429 -0.093115
v -0.233460 -0.500421 -0.056827
v -0.244299 -0.487432 -0.060737
v -0.269705 -0.487645 0.009419
v -0.212593 -0.489169 -0.111883
v -0.164883 -0.457928 -0.053828
v -0.187687 -0.455221 0.010503
v -0.206755 -0.451422 0.020617
v -0.248076 -0.451747 0.007888
v -0.257065 -0.455638 -0.008095
v -0.243075 -0.457664 -0.061057
v -0.214592 -0.459177 -0.099516
v -0.189125 -0.459070 -0.101044
v -0.169491 -0.459248 -0.087556
vt 0.062012 0.628448
vt 0.051056 0.641663
vt 0.059692 0.638519
vt 0.094177 0.621613
vt 0.078522 0.620026
vt 0.096680 0.622620
vt 0.265930 0.677490
vt 0.261078 0.667938
vt 0.220001 0.663544
vt 0.053650 0.642822
vt 0.053497 0.651337
vt 0.060364 0.639862
vt 0.053497 0.651337
vt 0.071533 0.642365
vt 0.060364 0.639862
vt 0.091614 0.632355
vt 0.078522 0.620026
vt 0.080353 0.629456
vt 0.078522 0.620026
vt 0.079315 0.628265
vt 0.080353 0.629456
vt 0.041718 0.637909
vt 0.026978 0.632812
vt 0.041718 0.637909
vt 0.268707 0.592194
vt 0.207275 0.536011
vt 0.202576 0.561615
vt 0.207275 0.536011
vt 0.168518 0.502075
vt 0.202576 0.561615
vt 0.200653 0.573059
vt 0.162109 0.539856
vt 0.170410 0.625061
vt 0.162109 0.539856
vt 0.113708 0.585205
vt 0.170410 0.625061
vt 0.279907 0.664276
vt 0.276306 0.646729
vt 0.279907 0.664276
vt 0.287903 0.650696
vt 0.109131 0.623779
vt 0.101746 0.620209
vt 0.102203 0.611481
vt 0.101746 0.620209
vt 0.102203 0.611481
vt 0.101654 0.618256
vt 0.101746 0.620209
vt 0.268707 0.592194
vt 0.202576 0.561615
vt 0.254791 0.608643
vt 0.202576 0.561615
vt 0.246948 0.618774
vt 0.265930 0.677490
vt 0.279907 0.664276
vt 0.265930 0.677490
vt 0.269562 0.698822
vt 0.279907 0.664276
vt 0.162109 0.539856
vt 0.202576 0.561615
vt 0.168518 0.502075
vt 0.162109 0.539856
vt 0.200653 0.573059
vt 0.202576 0.561615
vt 0.200653 0.573059
vt 0.246948 0.618774
vt 0.202576 0.561615
vt 0.200653 0.573059
vt 0.170410 0.625061
vt 0.246948 0.618774
vt 0.170410 0.625061
vt 0.226379 0.652130
vt 0.246948 0.618774
vt 0.073486 0.631165
vt 0.074646 0.632324
vt 0.071533 0.642365
vt 0.074646 0.632324
vt 0.059692 0.638519
vt 0.071533 0.642365
vt 0.059692 0.638519
vt 0.060364 0.639862
vt 0.071533 0.642365
vt 0.059692 0.638519
vt 0.060364 0.639862
vt 0.053650 0.642822
vt 0.060364 0.639862
vt 0.041718 0.637909
vt 0.053650 0.642822
vt 0.041718 0.637909
vt 0.053497 0.651337
vt 0.053650 0.642822
vt 0.041718 0.637909
vt 0.026978 0.632812
vt 0.053497 0.651337
vt 0.026978 0.632812
vt 0.056824 0.669952
vt 0.053497 0.651337
vt 0.096680 0.622620
vt 0.078522 0.620026
vt 0.101746 0.620209
vt 0.096680 0.622620
vt 0.101746 0.620209
vt 0.094177 0.621613
vt 0.096680 0.622620
vt 0.101746 0.620209
vt 0.101654 0.618256
vt 0.094177 0.621613
vt 0.101654 0.618256
vt 0.078522 0.620026
vt 0.094177 0.621613
vt 0.101654 0.618256
vt 0.102203 0.611481
vt 0.078522 0.620026
vt 0.102203 0.611481
vt 0.113708 0.585205
vt 0.078522 0.620026
vt 0.102203 0.611481
vt 0.113708 0.585205
vt 0.123566 0.632812
vt 0.113708 0.585205
vt 0.123566 0.632812
vt 0.087341 0.649902
vt 0.123566 0.632812
vt 0.026978 0.632812
vt 0.078522 0.620026
vt 0.113708 0.585205
vt 0.026978 0.632812
vt 0.078522 0.620026
vt 0.079315 0.628265
vt 0.078522 0.620026
vt 0.073486 0.631165
vt 0.079315 0.628265
vt 0.073486 0.631165
vt 0.080353 0.629456
vt 0.079315 0.628265
vt 0.073486 0.631165
vt 0.074646 0.632324
vt 0.080353 0.629456
vt 0.074646 0.632324
vt 0.080353 0.629456
vt 0.074646 0.632324
vt 0.071533 0.642365
vt 0.071533 0.642365
vt 0.087341 0.649902
vt 0.071533 0.642365
vt 0.053497 0.651337
vt 0.087341 0.649902
vt 0.053497 0.651337
vt 0.056824 0.669952
vt 0.087341 0.649902
vt 0.302216 0.681427
vt 0.311035 0.647980
vt 0.279907 0.664276
vt 0.311035 0.647980
vt 0.287903 0.650696
vt 0.279907 0.664276
vt 0.311035 0.647980
vt 0.287903 0.650696
vt 0.287903 0.650696
vt 0.246948 0.618774
vt 0.246948 0.618774
vt 0.246948 0.618774
vt 0.226379 0.652130
vt 0.226379 0.652130
vt 0.220001 0.663544
vt 0.226379 0.652130
vt 0.170410 0.625061
vt 0.220001 0.663544
vt 0.170410 0.625061
vt 0.164063 0.631104
vt 0.220001 0.663544
vt 0.170410 0.625061
vt 0.113708 0.585205
vt 0.164063 0.631104
vt 0.113708 0.585205
vt 0.149353 0.647919
vt 0.164063 0.631104
vt 0.056824 0.669952
vt 0.052460 0.699341
vt 0.085114 0.676086
vt 0.087341 0.649902
vt 0.056824 0.669952
vt 0.085114 0.676086
vt 0.087341 0.649902
vt 0.085114 0.676086
vt 0.125336 0.662720
vt 0.123566 0.632812
vt 0.087341 0.649902
vt 0.125336 0.662720
vt 0.123566 0.632812
vt 0.125336 0.662720
vt 0.149353 0.647919
vt 0.113708 0.585205
vt 0.123566 0.632812
vt 0.149353 0.647919
vt 0.302216 0.681427
vt 0.279907 0.664276
vt 0.269562 0.698822
vt 0.220001 0.663544
vt 0.210266 0.681183
vt 0.269562 0.698822
vt 0.265930 0.677490
vt 0.220001 0.663544
vt 0.269562 0.698822
vt 0.311035 0.647980
vt 0.220001 0.663544
vt 0.164063 0.631104
vt 0.149353 0.647919
vt 0.210266 0.681183
vt 0.220001 0.663544
vt 0.149353 0.647919
vn -0.000582 -0.998831 0.048339
vn 0.201471 -0.875084 0.440043
vn -0.795603 -0.562505 0.224951
vn 0.513271 -0.620961 0.592419
vn -0.003994 -0.999403 0.034316
vn 0.678456 0.246231 0.692148
vn -0.669990 -0.019923 -0.742103
vn -0.149912 -0.967140 -0.205343
vn -0.890519 -0.209714 -0.403729
vn 0.491222 0.518262 0.700075
vn 0.538239 0.725431 0.429008
vn -0.422162 0.681122 0.598208
vn 0.538239 0.725431 0.429008
vn 0.073768 0.906060 0.416670
vn -0.422162 0.681122 0.598208
vn -0.224843 0.918968 0.323949
vn -0.003994 -0.999403 0.034316
vn -0.722983 0.435248 0.536522
vn -0.003994 -0.999403 0.034316
vn -0.341205 -0.924290 0.171077
vn -0.722983 0.435248 0.536522
vn 0.201471 -0.875084 0.440043
vn -0.000582 -0.998831 0.048339
vn 0.584704 -0.753192 0.301367
vn -0.000582 -0.998831 0.048339
vn 0.362936 -0.925793 0.105761
vn 0.584704 -0.753192 0.301367
vn 0.994338 0.047121 0.095241
vn 0.820478 0.482204 0.307076
vn 0.962864 0.026511 0.268683
vn 0.820478 0.482204 0.307076
vn 0.547743 0.746211 0.378348
vn 0.962864 0.026511 0.268683
vn 0.156309 -0.986855 0.041056
vn 0.362936 -0.925793 0.105761
vn -0.119288 -0.992147 -0.037625
vn 0.362936 -0.925793 0.105761
vn -0.348060 -0.933423 -0.087044
vn -0.119288 -0.992147 -0.037625
vn -0.149912 -0.967140 -0.205343
vn 0.204932 -0.110240 -0.972548
vn 0.292144 -0.947338 -0.131161
vn 0.204932 -0.110240 -0.972548
vn 0.882532 -0.075822 -0.464100
vn 0.292144 -0.947338 -0.131161
vn -0.788427 0.596627 0.149732
vn -0.677345 0.505147 0.534818
vn -0.224843 0.918968 0.323949
vn -0.788427 0.596627 0.149732
vn -0.626127 -0.779181 0.029004
vn -0.677345 0.505147 0.534818
vn -0.626127 -0.779181 0.029004
vn -0.298841 -0.873378 0.384584
vn -0.677345 0.505147 0.534818
vn 0.994338 0.047121 0.095241
vn 0.962864 0.026511 0.268683
vn 0.967245 -0.223168 0.120965
vn 0.962864 0.026511 0.268683
vn 0.196538 -0.980022 0.030508
vn 0.967245 -0.223168 0.120965
vn -0.149912 -0.967140 -0.205343
vn -0.669990 -0.019923 -0.742103
vn 0.204932 -0.110240 -0.972548
vn -0.669990 -0.019923 -0.742103
vn -0.689516 0.212367 -0.692436
vn 0.204932 -0.110240 -0.972548
vn 0.362936 -0.925793 0.105761
vn 0.962864 0.026511 0.268683
vn 0.547743 0.746211 0.378348
vn 0.362936 -0.925793 0.105761
vn 0.156309 -0.986855 0.041056
vn 0.962864 0.026511 0.268683
vn 0.156309 -0.986855 0.041056
vn 0.196538 -0.980022 0.030508
vn 0.962864 0.026511 0.268683
vn 0.156309 -0.986855 0.041056
vn -0.119288 -0.992147 -0.037625
vn 0.196538 -0.980022 0.030508
vn -0.119288 -0.992147 -0.037625
vn -0.168518 -0.983052 -0.072181
vn 0.196538 -0.980022 0.030508
vn 0.290341 -0.893236 0.343266
vn -0.000582 -0.998831 0.048339
vn 0.309733 0.558185 0.769737
vn -0.000582 -0.998831 0.048339
vn 0.073768 0.906060 0.416670
vn 0.309733 0.558185 0.769737
vn -0.000582 -0.998831 0.048339
vn -0.795603 -0.562505 0.224951
vn 0.073768 0.906060 0.416670
vn -0.795603 -0.562505 0.224951
vn -0.422162 0.681122 0.598208
vn 0.073768 0.906060 0.416670
vn -0.795603 -0.562505 0.224951
vn 0.201471 -0.875084 0.440043
vn -0.422162 0.681122 0.598208
vn 0.201471 -0.875084 0.440043
vn 0.491222 0.518262 0.700075
vn -0.422162 0.681122 0.598208
vn 0.201471 -0.875084 0.440043
vn 0.584704 -0.753192 0.301367
vn 0.491222 0.518262 0.700075
vn 0.584704 -0.753192 0.301367
vn 0.538239 0.725431 0.429008
vn 0.491222 0.518262 0.700075
vn 0.584704 -0.753192 0.301367
vn 0.362936 -0.925793 0.105761
vn 0.538239 0.725431 0.429008
vn 0.362936 -0.925793 0.105761
vn 0.547743 0.746211 0.378348
vn 0.538239 0.725431 0.429008
vn -0.224843 0.918968 0.323949
vn 0.678456 0.246231 0.692148
vn -0.003994 -0.999403 0.034316
vn -0.224843 0.918968 0.323949
vn -0.677345 0.505147 0.534818
vn 0.678456 0.246231 0.692148
vn -0.677345 0.505147 0.534818
vn 0.513271 -0.620961 0.592419
vn 0.678456 0.246231 0.692148
vn -0.677345 0.505147 0.534818
vn -0.298841 -0.873378 0.384584
vn 0.513271 -0.620961 0.592419
vn -0.298841 -0.873378 0.384584
vn -0.003994 -0.999403 0.034316
vn 0.513271 -0.620961 0.592419
vn -0.298841 -0.873378 0.384584
vn -0.626127 -0.779181 0.029004
vn -0.003994 -0.999403 0.034316
vn -0.626127 -0.779181 0.029004
vn -0.348060 -0.933423 -0.087044
vn -0.003994 -0.999403 0.034316
vn -0.626127 -0.779181 0.029004
vn -0.788427 0.596627 0.149732
vn -0.348060 -0.933423 -0.087044
vn -0.788427 0.596627 0.149732
vn -0.752694 0.657533 0.033195
vn -0.348060 -0.933423 -0.087044
vn -0.788427 0.596627 0.149732
vn -0.224843 0.918968 0.323949
vn -0.752694 0.657533 0.033195
vn -0.224843 0.918968 0.323949
vn -0.065750 0.965672 0.251305
vn -0.752694 0.657533 0.033195
vn 0.362936 -0.925793 0.105761
vn -0.003994 -0.999403 0.034316
vn -0.348060 -0.933423 -0.087044
vn 0.362936 -0.925793 0.105761
vn -0.000582 -0.998831 0.048339
vn -0.003994 -0.999403 0.034316
vn -0.000582 -0.998831 0.048339
vn -0.341205 -0.924290 0.171077
vn -0.003994 -0.999403 0.034316
vn -0.000582 -0.998831 0.048339
vn 0.290341 -0.893236 0.343266
vn -0.341205 -0.924290 0.171077
vn 0.290341 -0.893236 0.343266
vn -0.722983 0.435248 0.536522
vn -0.341205 -0.924290 0.171077
vn 0.290341 -0.893236 0.343266
vn 0.309733 0.558185 0.769737
vn -0.722983 0.435248 0.536522
vn 0.309733 0.558185 0.769737
vn -0.224843 0.918968 0.323949
vn -0.722983 0.435248 0.536522
vn 0.309733 0.558185 0.769737
vn 0.073768 0.906060 0.416670
vn -0.224843 0.918968 0.323949
vn 0.073768 0.906060 0.416670
vn -0.065750 0.965672 0.251305
vn -0.224843 0.918968 0.323949
vn 0.073768 0.906060 0.416670
vn 0.538239 0.725431 0.429008
vn -0.065750 0.965672 0.251305
vn 0.538239 0.725431 0.429008
vn 0.547743 0.746211 0.378348
vn -0.065750 0.965672 0.251305
vn 0.278898 0.347196 -0.895361
vn 0.954250 0.081472 -0.287696
vn 0.204932 -0.110240 -0.972548
vn 0.954250 0.081472 -0.287696
vn 0.882532 -0.075822 -0.464100
vn 0.204932 -0.110240 -0.972548
vn 0.954250 0.081472 -0.287696
vn 0.967245 -0.223168 0.120965
vn 0.882532 -0.075822 -0.464100
vn 0.967245 -0.223168 0.120965
vn 0.292144 -0.947338 -0.131161
vn 0.882532 -0.075822 -0.464100
vn 0.967245 -0.223168 0.120965
vn 0.196538 -0.980022 0.030508
vn 0.292144 -0.947338 -0.131161
vn 0.196538 -0.980022 0.030508
vn -0.149912 -0.967140 -0.205343
vn 0.292144 -0.947338 -0.131161
vn 0.196538 -0.980022 0.030508
vn -0.168518 -0.983052 -0.072181
vn -0.149912 -0.967140 -0.205343
vn -0.168518 -0.983052 -0.072181
vn -0.890519 -0.209714 -0.403729
vn -0.149912 -0.967140 -0.205343
vn -0.168518 -0.983052 -0.072181
vn -0.119288 -0.992147 -0.037625
vn -0.890519 -0.209714 -0.403729
vn -0.119288 -0.992147 -0.037625
vn -0.983886 -0.003694 -0.178760
vn -0.890519 -0.209714 -0.403729
vn -0.119288 -0.992147 -0.037625
vn -0.348060 -0.933423 -0.087044
vn -0.983886 -0.003694 -0.178760
vn -0.348060 -0.933423 -0.087044
vn -0.929094 0.298864 -0.217863
vn -0.983886 -0.003694 -0.178760
vn 0.547743 0.746211 0.378348
vn 0.820478 0.482204 0.307076
vn 0.090091 0.959966 0.265235
vn -0.065750 0.965672 0.251305
vn 0.547743 0.746211 0.378348
vn 0.090091 0.959966 0.265235
vn -0.065750 0.965672 0.251305
vn 0.090091 0.959966 0.265235
vn -0.256402 0.948982 0.183551
vn -0.752694 0.657533 0.033195
vn -0.065750 0.965672 0.251305
vn -0.256402 0.948982 0.183551
vn -0.752694 0.657533 0.033195
vn -0.256402 0.948982 0.183551
vn -0.929094 0.298864 -0.217863
vn -0.348060 -0.933423 -0.087044
vn -0.752694 0.657533 0.033195
vn -0.929094 0.298864 -0.217863
vn 0.278898 0.347196 -0.895361
vn 0.204932 -0.110240 -0.972548
vn -0.689516 0.212367 -0.692436
vn -0.890519 -0.209714 -0.403729
vn -0.906307 0.032746 -0.421350
vn -0.689516 0.212367 -0.692436
vn -0.669990 -0.019923 -0.742103
vn -0.890519 -0.209714 -0.403729
vn -0.689516 0.212367 -0.692436
vn 0.994338 0.047121 0.095241
vn 0.967245 -0.223168 0.120965
vn 0.954250 0.081472 -0.287696
vn -0.890519 -0.209714 -0.403729
vn -0.983886 -0.003694 -0.178760
vn -0.929094 0.298864 -0.217863
vn -0.906307 0.032746 -0.421350
vn -0.890519 -0.209714 -0.403729
vn -0.929094 0.298864 -0.217863
s off
g piernaDer_default1
usemtl piernaDer_Pikachu_PikachuDh_PikachuDh_png2
f 6/1/1 5/2/2 1/3/3
f 24/4/4 22/5/5 21/6/6
f 38/7/7 2/8/8 36/9/9
f 17/10/10 4/11/11 3/12/12
f 4/13/13 16/14/14 3/15/15
f 20/16/16 22/17/17 30/18/18
f 22/19/19 29/20/20 30/21/21
f 5/2/22 6/1/23 7/22/24
f 6/1/25 18/23/26 7/24/27
f 39/25/28 40/26/29 8/27/30
f 40/28/31 19/29/32 8/30/33
f 9/31/34 18/32/35 15/33/36
f 18/34/37 26/35/38 15/36/39
f 2/8/40 10/37/41 34/38/42
f 10/39/43 33/40/44 34/38/45
f 11/41/46 12/42/47 20/16/48
f 11/41/49 25/43/50 12/44/51
f 25/45/52 23/46/53 12/47/54
f 39/48/55 8/49/56 14/50/57
f 8/51/58 13/52/59 14/50/60
f 2/8/61 38/53/62 10/54/63
f 38/55/64 45/56/65 10/57/66
f 18/58/67 8/59/68 19/60/69
f 18/61/70 9/62/71 8/63/72
f 9/64/73 13/65/74 8/66/75
f 9/67/76 15/68/77 13/69/78
f 15/70/79 35/71/80 13/72/81
f 28/73/82 6/1/83 31/74/84
f 6/1/85 16/75/86 31/76/87
f 6/1/88 1/77/89 16/78/90
f 1/79/91 3/80/92 16/81/93
f 1/82/94 5/2/95 3/83/96
f 5/2/97 17/84/98 3/85/99
f 5/2/100 7/86/101 17/87/102
f 7/88/103 4/89/104 17/90/105
f 7/91/106 18/92/107 4/93/108
f 18/94/109 19/95/110 4/96/111
f 20/16/112 21/97/113 22/98/114
f 20/16/115 12/99/116 21/100/117
f 12/101/118 24/102/119 21/103/120
f 12/104/121 23/105/122 24/106/123
f 23/107/124 22/108/125 24/109/126
f 23/110/127 25/111/128 22/112/129
f 25/113/130 26/114/131 22/115/132
f 25/116/133 11/41/134 26/117/135
f 11/41/136 27/118/137 26/119/138
f 11/41/139 20/16/140 27/120/141
f 20/16/142 32/121/143 27/122/144
f 18/123/145 22/124/146 26/125/147
f 18/126/148 6/1/149 22/127/150
f 6/1/151 29/128/152 22/129/153
f 6/1/154 28/130/155 29/131/156
f 28/132/157 30/133/158 29/134/159
f 28/135/160 31/136/161 30/137/162
f 31/138/163 20/16/164 30/139/165
f 31/140/166 16/141/167 20/16/168
f 16/142/169 32/143/170 20/16/171
f 16/144/172 4/145/173 32/146/174
f 4/147/175 19/148/176 32/149/177
f 46/150/178 47/151/179 10/152/180
f 47/153/181 33/154/182 10/155/183
f 47/156/184 14/50/185 33/157/186
f 14/50/187 34/38/188 33/158/189
f 14/50/190 13/159/191 34/38/192
f 13/160/193 2/8/194 34/38/195
f 13/161/196 35/162/197 2/8/198
f 35/163/199 36/164/200 2/8/201
f 35/165/202 15/166/203 36/167/204
f 15/168/205 37/169/206 36/170/207
f 15/171/208 26/172/209 37/173/210
f 26/174/211 43/175/212 37/176/213
f 19/177/214 40/178/215 41/179/216
f 32/180/217 19/181/218 41/182/219
f 32/183/220 41/184/221 42/185/222
f 27/186/223 32/187/224 42/188/225
f 27/189/226 42/190/227 43/191/228
f 26/192/229 27/193/230 43/194/231
f 46/195/232 10/196/233 45/197/234
f 36/198/235 44/199/236 45/200/237
f 38/201/238 36/202/239 45/203/240
f 39/25/241 14/50/242 47/204/243
f 36/205/244 37/206/245 43/207/246
f 44/208/247 36/209/248 43/210/249
