# This file uses centimeters as units for non-parametric coordinates.

mtllib orejaDer.mtl
g default
v -0.426537 0.906201 -0.275317
v -0.477591 0.889157 -0.326097
v -0.483995 0.910172 -0.308610
v -0.509602 0.902423 -0.332780
v -0.455498 0.830625 -0.288138
v -0.478439 0.835247 -0.263556
v -0.498028 0.873549 -0.314824
v -0.504433 0.894564 -0.297337
v -0.486181 0.860651 -0.242418
v -0.474188 0.891955 -0.237107
v -0.430792 0.849493 -0.301767
v -0.449480 0.910823 -0.250734
v -0.263889 0.708436 -0.106433
v -0.301374 0.711809 -0.067879
v -0.211552 0.780382 -0.121180
v -0.226685 0.736840 -0.128512
v -0.222198 0.819436 -0.088905
v -0.256037 0.826967 -0.050472
v -0.312019 0.750863 -0.035603
v -0.293243 0.798563 -0.028394
v -0.371002 0.812320 -0.262055
v -0.405275 0.786146 -0.243152
v -0.297585 0.769524 -0.199075
v -0.337551 0.739002 -0.177031
v -0.396927 0.897398 -0.191264
v -0.437105 0.792558 -0.209051
v -0.374670 0.746478 -0.137263
v -0.447844 0.827798 -0.179728
v -0.387194 0.787574 -0.103068
v -0.290703 0.861262 -0.156288
v -0.327820 0.868739 -0.116521
v -0.365101 0.890986 -0.225365
v -0.418795 0.880798 -0.296455
v -0.278179 0.820166 -0.190483
v -0.354362 0.855746 -0.254688
v -0.431202 0.871224 -0.172359
v -0.367786 0.838216 -0.094476
v -0.240488 0.696152 -0.075741
v -0.198322 0.719477 -0.100201
v -0.173824 0.751702 -0.072845
v -0.173124 0.771787 -0.034601
v -0.189096 0.772179 0.009393
v -0.226168 0.742286 0.023210
v -0.250824 0.708556 -0.000463
v -0.251501 0.691163 -0.040922
vt 0.254303 0.211761
vt 0.195343 0.277313
vt 0.230560 0.267242
vt 0.152802 0.316895
vt 0.160034 0.231598
vt 0.143097 0.231354
vt 0.152435 0.284424
vt 0.143097 0.231354
vt 0.116821 0.278107
vt 0.152435 0.284424
vt 0.143097 0.231354
vt 0.115265 0.227997
vt 0.116821 0.278107
vt 0.071411 0.216919
vt 0.116821 0.278107
vt 0.184906 0.229614
vt 0.152435 0.284424
vt 0.152435 0.284424
vt 0.152435 0.284424
vt 0.116821 0.278107
vt 0.116821 0.278107
vt 0.086273 0.265533
vt 0.116821 0.278107
vt 0.071411 0.216919
vt 0.086273 0.265533
vt 0.071411 0.216919
vt 0.037872 0.203278
vt 0.086273 0.265533
vt 0.162659 0.087128
vt 0.198914 0.023376
vt 0.162415 0.023376
vt 0.128021 0.084717
vt 0.162659 0.087128
vt 0.162415 0.023376
vt 0.128021 0.084717
vt 0.162415 0.023376
vt 0.125916 0.023376
vt 0.089417 0.017761
vt 0.128021 0.084717
vt 0.125916 0.023376
vt 0.231720 0.078186
vt 0.235413 0.017761
vt 0.198914 0.023376
vt 0.196655 0.085114
vt 0.231720 0.078186
vt 0.198914 0.023376
vt 0.196655 0.085114
vt 0.198914 0.023376
vt 0.162659 0.087128
vt 0.268646 0.066162
vt 0.308411 0.054718
vt 0.308411 0.008789
vt 0.271912 0.012146
vt 0.268646 0.066162
vt 0.308411 0.008789
vt 0.231720 0.078186
vt 0.268646 0.066162
vt 0.271912 0.012146
vt 0.235413 0.017761
vt 0.231720 0.078186
vt 0.271912 0.012146
vt 0.093567 0.079224
vt 0.128021 0.084717
vt 0.089417 0.017761
vt 0.052917 0.012146
vt 0.055573 0.068207
vt 0.052917 0.012146
vt 0.016418 0.008789
vt 0.016418 0.054718
vt 0.016418 0.008789
vt 0.189392 0.186188
vt 0.161469 0.197937
vt 0.160034 0.231598
vt 0.189392 0.186188
vt 0.192932 0.138489
vt 0.161469 0.197937
vt 0.192932 0.138489
vt 0.162598 0.144257
vt 0.161469 0.197937
vt 0.196655 0.085114
vt 0.162659 0.087128
vt 0.192932 0.138489
vt 0.196655 0.085114
vt 0.192932 0.138489
vt 0.231720 0.078186
vt 0.196655 0.085114
vt 0.299835 0.146362
vt 0.286987 0.203278
vt 0.286987 0.203278
vt 0.160034 0.231598
vt 0.161469 0.197937
vt 0.143097 0.231354
vt 0.161469 0.197937
vt 0.133331 0.187622
vt 0.143097 0.231354
vt 0.161469 0.197937
vt 0.133331 0.187622
vt 0.131470 0.139648
vt 0.133331 0.187622
vt 0.162659 0.087128
vt 0.162659 0.087128
vt 0.128021 0.084717
vt 0.143097 0.231354
vt 0.133331 0.187622
vt 0.133331 0.187622
vt 0.097382 0.173645
vt 0.133331 0.187622
vt 0.097382 0.173645
vt 0.096283 0.127167
vt 0.097382 0.173645
vt 0.128021 0.084717
vt 0.128021 0.084717
vt 0.308411 0.054718
vt 0.265228 0.110809
vt 0.308411 0.103394
vt 0.265228 0.110809
vt 0.299835 0.146362
vt 0.308411 0.103394
vt 0.265228 0.110809
vt 0.263916 0.157928
vt 0.299835 0.146362
vt 0.263916 0.157928
vt 0.299835 0.146362
vt 0.263916 0.157928
vt 0.207336 0.226593
vt 0.207336 0.226593
vt 0.231720 0.078186
vt 0.227448 0.125824
vt 0.268646 0.066162
vt 0.231720 0.078186
vt 0.192932 0.138489
vt 0.227448 0.125824
vt 0.192932 0.138489
vt 0.229553 0.168915
vt 0.227448 0.125824
vt 0.192932 0.138489
vt 0.189392 0.186188
vt 0.229553 0.168915
vt 0.189392 0.186188
vt 0.184906 0.229614
vt 0.229553 0.168915
vt 0.189392 0.186188
vt 0.160034 0.231598
vt 0.184906 0.229614
vt 0.160034 0.231598
vt 0.152435 0.284424
vt 0.184906 0.229614
vt 0.097382 0.173645
vt 0.071411 0.216919
vt 0.097382 0.173645
vt 0.061615 0.157593
vt 0.071411 0.216919
vt 0.097382 0.173645
vt 0.061615 0.157593
vt 0.056610 0.114777
vt 0.061615 0.157593
vt 0.056610 0.114777
vt 0.056610 0.114777
vt 0.268646 0.066162
vt 0.265228 0.110809
vt 0.308411 0.054718
vt 0.268646 0.066162
vt 0.227448 0.125824
vt 0.265228 0.110809
vt 0.227448 0.125824
vt 0.263916 0.157928
vt 0.265228 0.110809
vt 0.227448 0.125824
vt 0.229553 0.168915
vt 0.263916 0.157928
vt 0.229553 0.168915
vt 0.207336 0.226593
vt 0.263916 0.157928
vt 0.229553 0.168915
vt 0.184906 0.229614
vt 0.207336 0.226593
vt 0.184906 0.229614
vt 0.207336 0.226593
vt 0.071411 0.216919
vt 0.061615 0.157593
vt 0.061615 0.157593
vt 0.023163 0.146362
vt 0.061615 0.157593
vt 0.056610 0.114777
vt 0.023163 0.146362
vt 0.056610 0.114777
vt 0.016418 0.103394
vt 0.023163 0.146362
vt 0.056610 0.114777
vt 0.016418 0.103394
vt 0.016418 0.054718
vt 0.016418 0.103394
vn 0.371022 0.875267 -0.310244
vn 0.281412 0.069815 -0.957044
vn -0.038301 0.978984 -0.200306
vn 0.281412 0.069815 -0.957044
vn -0.636753 0.358218 -0.682806
vn -0.038301 0.978984 -0.200306
vn -0.231070 -0.758693 -0.609091
vn -0.744567 -0.664156 -0.067208
vn -0.616716 -0.620929 -0.483848
vn -0.744567 -0.664156 -0.067208
vn -0.921232 0.289298 0.260075
vn -0.616716 -0.620929 -0.483848
vn -0.744567 -0.664156 -0.067208
vn -0.915709 -0.133614 0.378977
vn -0.921232 0.289298 0.260075
vn -0.915709 -0.133614 0.378977
vn -0.659446 0.557261 0.504571
vn -0.921232 0.289298 0.260075
vn 0.291075 -0.351693 -0.889712
vn -0.616716 -0.620929 -0.483848
vn 0.281412 0.069815 -0.957044
vn -0.616716 -0.620929 -0.483848
vn -0.636753 0.358218 -0.682806
vn 0.281412 0.069815 -0.957044
vn -0.616716 -0.620929 -0.483848
vn -0.921232 0.289298 0.260075
vn -0.636753 0.358218 -0.682806
vn -0.921232 0.289298 0.260075
vn -0.038301 0.978984 -0.200306
vn -0.636753 0.358218 -0.682806
vn -0.921232 0.289298 0.260075
vn -0.659446 0.557261 0.504571
vn -0.038301 0.978984 -0.200306
vn -0.659446 0.557261 0.504571
vn -0.144773 0.963208 0.226430
vn -0.038301 0.978984 -0.200306
vn -0.021139 -0.917021 -0.398279
vn 0.588821 -0.392176 -0.706744
vn -0.080699 -0.940131 -0.331120
vn -0.541813 -0.819416 0.187073
vn -0.021139 -0.917021 -0.398279
vn -0.080699 -0.940131 -0.331120
vn -0.541813 -0.819416 0.187073
vn -0.080699 -0.940131 -0.331120
vn -0.441276 -0.886819 0.137212
vn -0.615919 -0.373990 0.693379
vn -0.541813 -0.819416 0.187073
vn -0.441276 -0.886819 0.137212
vn 0.789089 0.253513 -0.559526
vn 0.829473 0.322111 -0.456309
vn 0.588821 -0.392176 -0.706744
vn 0.481483 -0.489540 -0.726997
vn 0.789089 0.253513 -0.559526
vn 0.588821 -0.392176 -0.706744
vn 0.481483 -0.489540 -0.726997
vn 0.588821 -0.392176 -0.706744
vn -0.021139 -0.917021 -0.398279
vn 0.647017 0.758394 -0.078786
vn 0.161081 0.860995 0.482432
vn 0.146413 0.770332 0.620606
vn 0.685235 0.728242 0.010779
vn 0.647017 0.758394 -0.078786
vn 0.146413 0.770332 0.620606
vn 0.789089 0.253513 -0.559526
vn 0.647017 0.758394 -0.078786
vn 0.685235 0.728242 0.010779
vn 0.829473 0.322111 -0.456309
vn 0.789089 0.253513 -0.559526
vn 0.685235 0.728242 0.010779
vn -0.680732 -0.224942 0.697140
vn -0.541813 -0.819416 0.187073
vn -0.615919 -0.373990 0.693379
vn -0.352936 0.327484 0.876465
vn -0.680732 -0.224942 0.697140
vn -0.615919 -0.373990 0.693379
vn -0.383476 0.451848 0.805469
vn -0.680732 -0.224942 0.697140
vn -0.352936 0.327484 0.876465
vn 0.146413 0.770332 0.620606
vn -0.383476 0.451848 0.805469
vn -0.352936 0.327484 0.876465
vn 0.161081 0.860995 0.482432
vn -0.383476 0.451848 0.805469
vn 0.146413 0.770332 0.620606
vn 0.390012 -0.414570 -0.822206
vn -0.152247 -0.838730 -0.522832
vn -0.231070 -0.758693 -0.609091
vn 0.390012 -0.414570 -0.822206
vn 0.456085 -0.471858 -0.754544
vn -0.152247 -0.838730 -0.522832
vn 0.456085 -0.471858 -0.754544
vn -0.082078 -0.900185 -0.427703
vn -0.152247 -0.838730 -0.522832
vn -0.082078 -0.900185 -0.427703
vn 0.481483 -0.489540 -0.726997
vn -0.021139 -0.917021 -0.398279
vn -0.082078 -0.900185 -0.427703
vn 0.456085 -0.471858 -0.754544
vn 0.481483 -0.489540 -0.726997
vn 0.456085 -0.471858 -0.754544
vn 0.789089 0.253513 -0.559526
vn 0.481483 -0.489540 -0.726997
vn -0.027670 0.944561 0.327168
vn 0.371022 0.875267 -0.310244
vn -0.144773 0.963208 0.226430
vn 0.371022 0.875267 -0.310244
vn -0.038301 0.978984 -0.200306
vn -0.144773 0.963208 0.226430
vn -0.231070 -0.758693 -0.609091
vn -0.152247 -0.838730 -0.522832
vn -0.744567 -0.664156 -0.067208
vn -0.152247 -0.838730 -0.522832
vn -0.664371 -0.746921 0.026845
vn -0.744567 -0.664156 -0.067208
vn -0.152247 -0.838730 -0.522832
vn -0.082078 -0.900185 -0.427703
vn -0.664371 -0.746921 0.026845
vn -0.082078 -0.900185 -0.427703
vn -0.588376 -0.799534 0.120662
vn -0.664371 -0.746921 0.026845
vn -0.082078 -0.900185 -0.427703
vn -0.021139 -0.917021 -0.398279
vn -0.588376 -0.799534 0.120662
vn -0.021139 -0.917021 -0.398279
vn -0.541813 -0.819416 0.187073
vn -0.588376 -0.799534 0.120662
vn -0.744567 -0.664156 -0.067208
vn -0.664371 -0.746921 0.026845
vn -0.915709 -0.133614 0.378977
vn -0.664371 -0.746921 0.026845
vn -0.842409 -0.186994 0.505351
vn -0.915709 -0.133614 0.378977
vn -0.664371 -0.746921 0.026845
vn -0.588376 -0.799534 0.120662
vn -0.842409 -0.186994 0.505351
vn -0.588376 -0.799534 0.120662
vn -0.766871 -0.223883 0.601486
vn -0.842409 -0.186994 0.505351
vn -0.588376 -0.799534 0.120662
vn -0.541813 -0.819416 0.187073
vn -0.766871 -0.223883 0.601486
vn -0.541813 -0.819416 0.187073
vn -0.680732 -0.224942 0.697140
vn -0.766871 -0.223883 0.601486
vn 0.161081 0.860995 0.482432
vn 0.559339 0.813249 -0.160521
vn 0.048699 0.912790 0.405515
vn 0.559339 0.813249 -0.160521
vn -0.027670 0.944561 0.327168
vn 0.048699 0.912790 0.405515
vn 0.559339 0.813249 -0.160521
vn 0.485453 0.843638 -0.229371
vn -0.027670 0.944561 0.327168
vn 0.485453 0.843638 -0.229371
vn 0.371022 0.875267 -0.310244
vn -0.027670 0.944561 0.327168
vn 0.485453 0.843638 -0.229371
vn 0.545847 0.347133 -0.762594
vn 0.371022 0.875267 -0.310244
vn 0.545847 0.347133 -0.762594
vn 0.281412 0.069815 -0.957044
vn 0.371022 0.875267 -0.310244
vn 0.789089 0.253513 -0.559526
vn 0.726994 0.241013 -0.642956
vn 0.647017 0.758394 -0.078786
vn 0.789089 0.253513 -0.559526
vn 0.456085 -0.471858 -0.754544
vn 0.726994 0.241013 -0.642956
vn 0.456085 -0.471858 -0.754544
vn 0.654950 0.277585 -0.702842
vn 0.726994 0.241013 -0.642956
vn 0.456085 -0.471858 -0.754544
vn 0.390012 -0.414570 -0.822206
vn 0.654950 0.277585 -0.702842
vn 0.390012 -0.414570 -0.822206
vn 0.291075 -0.351693 -0.889712
vn 0.654950 0.277585 -0.702842
vn 0.390012 -0.414570 -0.822206
vn -0.231070 -0.758693 -0.609091
vn 0.291075 -0.351693 -0.889712
vn -0.231070 -0.758693 -0.609091
vn -0.616716 -0.620929 -0.483848
vn 0.291075 -0.351693 -0.889712
vn -0.915709 -0.133614 0.378977
vn -0.842409 -0.186994 0.505351
vn -0.659446 0.557261 0.504571
vn -0.842409 -0.186994 0.505351
vn -0.580817 0.513691 0.631484
vn -0.659446 0.557261 0.504571
vn -0.842409 -0.186994 0.505351
vn -0.766871 -0.223883 0.601486
vn -0.580817 0.513691 0.631484
vn -0.766871 -0.223883 0.601486
vn -0.500549 0.480148 0.720353
vn -0.580817 0.513691 0.631484
vn -0.766871 -0.223883 0.601486
vn -0.680732 -0.224942 0.697140
vn -0.500549 0.480148 0.720353
vn -0.680732 -0.224942 0.697140
vn -0.383476 0.451848 0.805469
vn -0.500549 0.480148 0.720353
vn 0.647017 0.758394 -0.078786
vn 0.559339 0.813249 -0.160521
vn 0.161081 0.860995 0.482432
vn 0.647017 0.758394 -0.078786
vn 0.726994 0.241013 -0.642956
vn 0.559339 0.813249 -0.160521
vn 0.726994 0.241013 -0.642956
vn 0.485453 0.843638 -0.229371
vn 0.559339 0.813249 -0.160521
vn 0.726994 0.241013 -0.642956
vn 0.654950 0.277585 -0.702842
vn 0.485453 0.843638 -0.229371
vn 0.654950 0.277585 -0.702842
vn 0.545847 0.347133 -0.762594
vn 0.485453 0.843638 -0.229371
vn 0.654950 0.277585 -0.702842
vn 0.291075 -0.351693 -0.889712
vn 0.545847 0.347133 -0.762594
vn 0.291075 -0.351693 -0.889712
vn 0.281412 0.069815 -0.957044
vn 0.545847 0.347133 -0.762594
vn -0.659446 0.557261 0.504571
vn -0.580817 0.513691 0.631484
vn -0.144773 0.963208 0.226430
vn -0.580817 0.513691 0.631484
vn -0.027670 0.944561 0.327168
vn -0.144773 0.963208 0.226430
vn -0.580817 0.513691 0.631484
vn -0.500549 0.480148 0.720353
vn -0.027670 0.944561 0.327168
vn -0.500549 0.480148 0.720353
vn 0.048699 0.912790 0.405515
vn -0.027670 0.944561 0.327168
vn -0.500549 0.480148 0.720353
vn -0.383476 0.451848 0.805469
vn 0.048699 0.912790 0.405515
vn -0.383476 0.451848 0.805469
vn 0.161081 0.860995 0.482432
vn 0.048699 0.912790 0.405515
s off
g orejaDer_default1
usemtl orejaDer_Pikachu_PikachuDh_PikachuDh_png2
f 1/1/1 2/2/2 3/3/3
f 2/2/4 4/4/5 3/3/6
f 5/5/7 6/6/8 7/7/9
f 6/8/10 8/9/11 7/10/12
f 6/11/13 9/12/14 8/13/15
f 9/12/16 10/14/17 8/15/18
f 11/16/19 7/17/20 2/2/21
f 7/18/22 4/4/23 2/2/24
f 7/19/25 8/20/26 4/4/27
f 8/21/28 3/22/29 4/4/30
f 8/23/31 10/24/32 3/25/33
f 10/26/34 12/27/35 3/28/36
f 13/29/37 39/30/38 38/31/39
f 14/32/40 13/33/41 38/34/42
f 14/35/43 38/36/44 45/37/45
f 44/38/46 14/39/47 45/40/48
f 15/41/49 40/42/50 39/43/51
f 16/44/52 15/45/53 39/46/54
f 16/47/55 39/48/56 13/49/57
f 17/50/58 18/51/59 42/52/60
f 41/53/61 17/54/62 42/55/63
f 15/56/64 17/57/65 41/58/66
f 40/59/67 15/60/68 41/61/69
f 19/62/70 14/63/71 44/64/72
f 43/65/73 19/62/74 44/38/75
f 20/66/76 19/62/77 43/67/78
f 42/68/79 20/66/80 43/65/81
f 18/69/82 20/66/83 42/70/84
f 21/71/85 22/72/86 5/73/87
f 21/74/88 23/75/89 22/76/90
f 23/77/91 24/78/92 22/79/93
f 24/78/94 16/80/95 13/81/96
f 24/78/97 23/82/98 16/83/99
f 23/84/100 15/85/101 16/86/102
f 25/87/103 1/1/104 12/88/105
f 1/1/106 3/3/107 12/89/108
f 5/90/109 22/91/110 6/92/111
f 22/93/112 26/94/113 6/95/114
f 22/96/115 24/78/116 26/97/117
f 24/78/118 27/98/119 26/99/120
f 24/78/121 13/100/122 27/98/123
f 13/101/124 14/102/125 27/98/126
f 6/103/127 26/104/128 9/12/129
f 26/105/130 28/106/131 9/12/132
f 26/107/133 27/98/134 28/108/135
f 27/98/136 29/109/137 28/110/138
f 27/98/139 14/111/140 29/109/141
f 14/112/142 19/62/143 29/109/144
f 18/113/145 30/114/146 31/115/147
f 30/116/148 25/117/149 31/118/150
f 30/119/151 32/120/152 25/121/153
f 32/122/154 1/1/155 25/123/156
f 32/124/157 33/125/158 1/1/159
f 33/126/160 2/2/161 1/1/162
f 15/127/163 34/128/164 17/129/165
f 15/130/166 23/131/167 34/132/168
f 23/133/169 35/134/170 34/135/171
f 23/136/172 21/137/173 35/138/174
f 21/139/175 11/140/176 35/141/177
f 21/142/178 5/143/179 11/144/180
f 5/145/181 7/146/182 11/147/183
f 9/12/184 28/148/185 10/149/186
f 28/150/187 36/151/188 10/152/189
f 28/153/190 29/109/191 36/154/192
f 29/109/193 37/155/194 36/156/195
f 29/109/196 19/62/197 37/157/198
f 19/62/199 20/66/200 37/158/201
f 17/159/202 30/160/203 18/161/204
f 17/162/205 34/163/206 30/164/207
f 34/165/208 32/166/209 30/167/210
f 34/168/211 35/169/212 32/170/213
f 35/171/214 33/172/215 32/173/216
f 35/174/217 11/175/218 33/176/219
f 11/177/220 2/2/221 33/178/222
f 10/179/223 36/180/224 12/27/225
f 36/181/226 25/182/227 12/27/228
f 36/183/229 37/184/230 25/185/231
f 37/186/232 31/187/233 25/188/234
f 37/189/235 20/66/236 31/190/237
f 20/66/238 18/191/239 31/192/240
