# This file uses centimeters as units for non-parametric coordinates.

mtllib maquinaB.mtl
g default
v 0.667480 -0.447665 0.665316
v 0.666452 -0.445909 -0.668016
v 0.667480 0.447622 0.666494
v 0.666452 0.449378 -0.666837
v -0.665519 0.447621 0.667522
v -0.666547 0.449377 -0.665810
v -0.665519 -0.447667 0.666343
v -0.666547 -0.445910 -0.666988
vt 0.999281 0.000582
vt 0.999818 -0.000147
vt 0.375000 0.250000
vt 0.002178 0.996075
vt 1.000131 0.997107
vt 0.625000 0.500000
vt 0.375000 0.750000
vt -0.000131 0.000655
vt 0.375000 1.000000
vt 0.625000 1.000000
vt 0.999078 -0.000825
vt 0.999078 0.996075
vt -0.000537 0.000582
vt -0.000537 1.000400
vt 0.998226 -0.001250
vt 0.625000 0.750000
vt 0.375000 0.500000
vt 0.001774 0.999012
vt 0.000182 0.999489
vt 0.625000 0.250000
vt 0.000182 -0.000147
vt 0.999281 1.000400
vt 0.002178 -0.000825
vt 0.999818 0.999489
vn 1.000000 0.000001 -0.000771
vn 1.000000 0.000001 -0.000771
vn 1.000000 0.000001 -0.000771
vn 1.000000 0.000001 -0.000771
vn 0.000000 0.999999 0.001317
vn 0.000000 0.999999 0.001317
vn 0.000000 0.999999 0.001317
vn 0.000000 0.999999 0.001317
vn -1.000000 -0.000001 0.000771
vn -1.000000 -0.000001 0.000771
vn -1.000000 -0.000001 0.000771
vn -1.000000 -0.000001 0.000771
vn -0.000000 -0.999999 -0.001317
vn -0.000000 -0.999999 -0.001317
vn -0.000000 -0.999999 -0.001317
vn -0.000000 -0.999999 -0.001317
vn -0.000771 0.001317 -0.999999
vn -0.000771 0.001317 -0.999999
vn -0.000771 0.001317 -0.999999
vn -0.000771 0.001317 -0.999999
vn 0.000771 -0.001317 0.999999
vn 0.000771 -0.001317 0.999999
vn 0.000771 -0.001317 0.999999
vn 0.000771 -0.001317 0.999999
s off
g pasted__pCube1 group
usemtl pasted__lambert78SG
f 1/21/1 2/2/2 4/24/3 3/19/4
usemtl pasted__lambert75SG
f 3/3/5 4/20/6 6/6/7 5/17/8
usemtl pasted__lambert82SG
f 5/5/9 6/18/10 8/8/11 7/15/12
usemtl pasted__lambert76SG
f 7/7/13 8/16/14 2/10/15 1/9/16
usemtl pasted__lambert79SG
f 2/23/17 8/11/18 6/12/19 4/4/20
usemtl pasted__lambert81SG
f 7/13/21 1/1/22 3/22/23 5/14/24
