# This file uses centimeters as units for non-parametric coordinates.

mtllib piernaIzq.mtl
g default
v 0.201686 -0.476314 0.093352
v 0.274077 -0.476886 0.077766
v 0.237138 -0.470427 0.089357
v 0.178033 -0.484817 0.027300
v 0.256383 -0.498023 0.014376
v 0.188214 -0.497454 0.030986
v 0.272473 -0.500572 0.078863
v 0.265662 -0.487521 0.007250
v 0.257455 -0.493084 0.139145
v 0.240512 -0.498695 0.139247
v 0.256568 -0.498809 0.135640
v 0.232951 -0.496475 0.139900
v 0.263993 -0.496777 0.130802
v 0.205886 -0.497584 -0.103035
v 0.208552 -0.489045 -0.114052
v 0.188838 -0.488823 -0.115968
v 0.232797 -0.499796 0.118440
v 0.173600 -0.497304 -0.095285
v 0.166211 -0.488673 -0.104234
v 0.172862 -0.499897 -0.046224
v 0.229421 -0.500297 -0.058998
v 0.240258 -0.487307 -0.062906
v 0.241742 -0.492678 0.142680
v 0.253797 -0.499940 0.114047
v 0.270680 -0.497282 0.128878
v 0.277719 -0.501082 0.112092
v 0.265470 -0.490200 0.132641
v 0.270104 -0.490447 0.131558
v 0.275626 -0.484033 0.113609
v 0.198962 -0.497997 0.093608
v 0.222930 -0.496456 0.140007
v 0.210946 -0.500631 0.125442
v 0.215791 -0.483659 0.125222
v 0.227086 -0.490322 0.142176
v 0.233079 -0.490115 0.141741
v 0.233344 -0.479610 0.124521
v 0.257960 -0.479764 0.119075
v 0.161937 -0.486865 -0.045953
v 0.160846 -0.457804 -0.055997
v 0.165450 -0.459123 -0.089725
v 0.183644 -0.455097 0.008334
v 0.202718 -0.451298 0.018448
v 0.244037 -0.451623 0.005719
v 0.253024 -0.455514 -0.010264
v 0.239034 -0.457540 -0.063226
v 0.210551 -0.459053 -0.101685
v 0.185086 -0.458946 -0.103213
vt 0.287903 0.650696
vt 0.311035 0.647980
vt 0.279907 0.664276
vt 0.210266 0.681183
vt 0.149353 0.647919
vt 0.220001 0.663544
vt 0.269562 0.698822
vt 0.269562 0.698822
vt 0.265930 0.677490
vt 0.085114 0.676086
vt 0.052460 0.699341
vt 0.056824 0.669952
vt 0.087341 0.649902
vt 0.085114 0.676086
vt 0.125336 0.662720
vt 0.123566 0.632812
vt 0.125336 0.662720
vt 0.113708 0.585205
vt 0.149353 0.647919
vt 0.162109 0.539856
vt 0.202576 0.561615
vt 0.200653 0.573059
vt 0.170410 0.625061
vt 0.164063 0.631104
vt 0.168518 0.502075
vt 0.207275 0.536011
vt 0.302216 0.681427
vt 0.311035 0.647980
vt 0.080353 0.629456
vt 0.073486 0.631165
vt 0.079315 0.628265
vt 0.059692 0.638519
vt 0.071533 0.642365
vt 0.060364 0.639862
vt 0.102203 0.611481
vt 0.101654 0.618256
vt 0.078522 0.620026
vt 0.096680 0.622620
vt 0.094177 0.621613
vt 0.101746 0.620209
vt 0.261078 0.667938
vt 0.226379 0.652130
vt 0.053650 0.642822
vt 0.053497 0.651337
vt 0.041718 0.637909
vt 0.026978 0.632812
vt 0.246948 0.618774
vt 0.261078 0.667938
vt 0.261078 0.667938
vt 0.074646 0.632324
vt 0.062012 0.628448
vt 0.062012 0.628448
vt 0.276306 0.646729
vt 0.254791 0.608643
vt 0.276306 0.646729
vt 0.254791 0.608643
vt 0.254791 0.608643
vt 0.276306 0.646729
vt 0.261078 0.667938
vt 0.276306 0.646729
vt 0.261078 0.667938
vt 0.276306 0.646729
vt 0.261078 0.667938
vt 0.051056 0.641663
vt 0.051056 0.641663
vt 0.062012 0.628448
vt 0.062012 0.628448
vt 0.062012 0.628448
vt 0.091614 0.632355
vt 0.091614 0.632355
vt 0.091614 0.632355
vt 0.062012 0.628448
vt 0.091614 0.632355
vt 0.091614 0.632355
vt 0.109131 0.623779
vt 0.091614 0.632355
vt 0.109131 0.623779
vt 0.109131 0.623779
vt 0.062012 0.628448
vt 0.062012 0.628448
vt 0.062012 0.628448
vt 0.051056 0.641663
vt 0.051056 0.641663
vt 0.051056 0.641663
vt 0.091614 0.632355
vt 0.091614 0.632355
vt 0.091614 0.632355
vt 0.109131 0.623779
vt 0.109131 0.623779
vt 0.254791 0.608643
vt 0.254791 0.608643
vt 0.268707 0.592194
vt 0.254791 0.608643
vt 0.268707 0.592194
vt 0.207275 0.536011
vt 0.268707 0.592194
vn -0.882528 -0.075815 -0.464108
vn -0.954243 0.081508 -0.287711
vn -0.204933 -0.110236 -0.972548
vn 0.906302 0.032815 -0.421356
vn 0.929103 0.298834 -0.217866
vn 0.890527 -0.209686 -0.403725
vn 0.689522 0.212379 -0.692427
vn 0.906302 0.032815 -0.421356
vn 0.890527 -0.209686 -0.403725
vn 0.689522 0.212379 -0.692427
vn 0.890527 -0.209686 -0.403725
vn 0.669989 -0.019922 -0.742104
vn -0.204933 -0.110236 -0.972548
vn 0.689522 0.212379 -0.692427
vn 0.669989 -0.019922 -0.742104
vn -0.090074 0.959968 0.265232
vn -0.820468 0.482232 0.307057
vn -0.547739 0.746210 0.378355
vn 0.065754 0.965673 0.251302
vn -0.090074 0.959968 0.265232
vn -0.547739 0.746210 0.378355
vn 0.256410 0.948982 0.183542
vn -0.090074 0.959968 0.265232
vn 0.065754 0.965673 0.251302
vn 0.752708 0.657518 0.033186
vn 0.256410 0.948982 0.183542
vn 0.065754 0.965673 0.251302
vn 0.929103 0.298834 -0.217866
vn 0.256410 0.948982 0.183542
vn 0.752708 0.657518 0.033186
vn 0.348050 -0.933426 -0.087049
vn 0.929103 0.298834 -0.217866
vn 0.752708 0.657518 0.033186
vn -0.362940 -0.925790 0.105767
vn -0.962864 0.026472 0.268688
vn -0.156308 -0.986855 0.041053
vn 0.119290 -0.992146 -0.037622
vn -0.362940 -0.925790 0.105767
vn -0.156308 -0.986855 0.041053
vn 0.348050 -0.933426 -0.087049
vn -0.362940 -0.925790 0.105767
vn 0.119290 -0.992146 -0.037622
vn 0.983883 -0.003708 -0.178773
vn 0.348050 -0.933426 -0.087049
vn 0.119290 -0.992146 -0.037622
vn -0.962864 0.026472 0.268688
vn -0.362940 -0.925790 0.105767
vn -0.547739 0.746210 0.378355
vn -0.820468 0.482232 0.307057
vn -0.962864 0.026472 0.268688
vn -0.547739 0.746210 0.378355
vn 0.929103 0.298834 -0.217866
vn 0.348050 -0.933426 -0.087049
vn 0.983883 -0.003708 -0.178773
vn 0.890527 -0.209686 -0.403725
vn 0.929103 0.298834 -0.217866
vn 0.983883 -0.003708 -0.178773
vn -0.278900 0.347183 -0.895365
vn 0.689522 0.212379 -0.692427
vn -0.204933 -0.110236 -0.972548
vn -0.954243 0.081508 -0.287711
vn -0.278900 0.347183 -0.895365
vn -0.204933 -0.110236 -0.972548
vn 0.722973 0.435263 0.536522
vn -0.290338 -0.893246 0.343244
vn 0.341189 -0.924294 0.171089
vn 0.795601 -0.562508 0.224952
vn -0.073759 0.906057 0.416677
vn 0.422184 0.681109 0.598206
vn 0.626117 -0.779190 0.028994
vn 0.298854 -0.873371 0.384591
vn 0.003995 -0.999403 0.034308
vn -0.678426 0.246276 0.692160
vn -0.513141 -0.621073 0.592414
vn 0.677315 0.505152 0.534851
vn 0.149909 -0.967140 -0.205347
vn 0.890527 -0.209686 -0.403725
vn 0.168516 -0.983052 -0.072186
vn -0.491213 0.518236 0.700101
vn -0.538223 0.725442 0.429011
vn -0.584734 -0.753165 0.301377
vn -0.538223 0.725442 0.429011
vn -0.362940 -0.925790 0.105767
vn -0.584734 -0.753165 0.301377
vn -0.362940 -0.925790 0.105767
vn -0.538223 0.725442 0.429011
vn -0.547739 0.746210 0.378355
vn -0.538223 0.725442 0.429011
vn 0.065754 0.965673 0.251302
vn -0.547739 0.746210 0.378355
vn -0.962864 0.026472 0.268688
vn -0.196534 -0.980022 0.030506
vn -0.156308 -0.986855 0.041053
vn -0.196534 -0.980022 0.030506
vn 0.119290 -0.992146 -0.037622
vn -0.156308 -0.986855 0.041053
vn 0.890527 -0.209686 -0.403725
vn 0.149909 -0.967140 -0.205347
vn 0.669989 -0.019922 -0.742104
vn 0.149909 -0.967140 -0.205347
vn -0.204933 -0.110236 -0.972548
vn 0.669989 -0.019922 -0.742104
vn -0.309727 0.558187 0.769738
vn -0.290338 -0.893246 0.343244
vn 0.722973 0.435263 0.536522
vn -0.309727 0.558187 0.769738
vn 0.000571 -0.998830 0.048357
vn -0.290338 -0.893246 0.343244
vn 0.000571 -0.998830 0.048357
vn 0.341189 -0.924294 0.171089
vn -0.290338 -0.893246 0.343244
vn -0.292124 -0.947342 -0.131172
vn -0.967255 -0.223126 0.120963
vn -0.882528 -0.075815 -0.464108
vn -0.292124 -0.947342 -0.131172
vn -0.196534 -0.980022 0.030506
vn -0.967255 -0.223126 0.120963
vn -0.196534 -0.980022 0.030506
vn -0.962864 0.026472 0.268688
vn -0.967255 -0.223126 0.120963
vn -0.204933 -0.110236 -0.972548
vn -0.292124 -0.947342 -0.131172
vn -0.882528 -0.075815 -0.464108
vn -0.204933 -0.110236 -0.972548
vn 0.149909 -0.967140 -0.205347
vn -0.292124 -0.947342 -0.131172
vn 0.149909 -0.967140 -0.205347
vn -0.196534 -0.980022 0.030506
vn -0.292124 -0.947342 -0.131172
vn 0.149909 -0.967140 -0.205347
vn 0.168516 -0.983052 -0.072186
vn -0.196534 -0.980022 0.030506
vn 0.168516 -0.983052 -0.072186
vn 0.119290 -0.992146 -0.037622
vn -0.196534 -0.980022 0.030506
vn 0.168516 -0.983052 -0.072186
vn 0.890527 -0.209686 -0.403725
vn 0.119290 -0.992146 -0.037622
vn 0.890527 -0.209686 -0.403725
vn 0.983883 -0.003708 -0.178773
vn 0.119290 -0.992146 -0.037622
vn -0.201456 -0.875089 0.440039
vn 0.795601 -0.562508 0.224952
vn 0.422184 0.681109 0.598206
vn -0.201456 -0.875089 0.440039
vn 0.000571 -0.998830 0.048357
vn 0.795601 -0.562508 0.224952
vn 0.000571 -0.998830 0.048357
vn -0.073759 0.906057 0.416677
vn 0.795601 -0.562508 0.224952
vn 0.000571 -0.998830 0.048357
vn -0.309727 0.558187 0.769738
vn -0.073759 0.906057 0.416677
vn -0.309727 0.558187 0.769738
vn 0.224839 0.918975 0.323934
vn -0.073759 0.906057 0.416677
vn -0.309727 0.558187 0.769738
vn 0.722973 0.435263 0.536522
vn 0.224839 0.918975 0.323934
vn 0.722973 0.435263 0.536522
vn 0.003995 -0.999403 0.034308
vn 0.224839 0.918975 0.323934
vn 0.722973 0.435263 0.536522
vn 0.341189 -0.924294 0.171089
vn 0.003995 -0.999403 0.034308
vn 0.341189 -0.924294 0.171089
vn 0.000571 -0.998830 0.048357
vn 0.003995 -0.999403 0.034308
vn 0.677315 0.505152 0.534851
vn 0.298854 -0.873371 0.384591
vn 0.626117 -0.779190 0.028994
vn 0.677315 0.505152 0.534851
vn -0.513141 -0.621073 0.592414
vn 0.298854 -0.873371 0.384591
vn -0.513141 -0.621073 0.592414
vn 0.003995 -0.999403 0.034308
vn 0.298854 -0.873371 0.384591
vn -0.513141 -0.621073 0.592414
vn -0.678426 0.246276 0.692160
vn 0.003995 -0.999403 0.034308
vn -0.678426 0.246276 0.692160
vn 0.224839 0.918975 0.323934
vn 0.003995 -0.999403 0.034308
vn -0.678426 0.246276 0.692160
vn 0.677315 0.505152 0.534851
vn 0.224839 0.918975 0.323934
vn 0.677315 0.505152 0.534851
vn 0.788430 0.596617 0.149755
vn 0.224839 0.918975 0.323934
vn 0.677315 0.505152 0.534851
vn 0.626117 -0.779190 0.028994
vn 0.788430 0.596617 0.149755
vn 0.626117 -0.779190 0.028994
vn 0.348050 -0.933426 -0.087049
vn 0.788430 0.596617 0.149755
vn 0.626117 -0.779190 0.028994
vn 0.003995 -0.999403 0.034308
vn 0.348050 -0.933426 -0.087049
vn 0.003995 -0.999403 0.034308
vn -0.362940 -0.925790 0.105767
vn 0.348050 -0.933426 -0.087049
vn 0.003995 -0.999403 0.034308
vn 0.000571 -0.998830 0.048357
vn -0.362940 -0.925790 0.105767
vn 0.000571 -0.998830 0.048357
vn -0.584734 -0.753165 0.301377
vn -0.362940 -0.925790 0.105767
vn 0.000571 -0.998830 0.048357
vn -0.201456 -0.875089 0.440039
vn -0.584734 -0.753165 0.301377
vn -0.201456 -0.875089 0.440039
vn -0.491213 0.518236 0.700101
vn -0.584734 -0.753165 0.301377
vn -0.201456 -0.875089 0.440039
vn 0.422184 0.681109 0.598206
vn -0.491213 0.518236 0.700101
vn 0.422184 0.681109 0.598206
vn -0.538223 0.725442 0.429011
vn -0.491213 0.518236 0.700101
vn 0.422184 0.681109 0.598206
vn -0.073759 0.906057 0.416677
vn -0.538223 0.725442 0.429011
vn -0.073759 0.906057 0.416677
vn 0.065754 0.965673 0.251302
vn -0.538223 0.725442 0.429011
vn -0.073759 0.906057 0.416677
vn 0.224839 0.918975 0.323934
vn 0.065754 0.965673 0.251302
vn 0.224839 0.918975 0.323934
vn 0.752708 0.657518 0.033186
vn 0.065754 0.965673 0.251302
vn 0.224839 0.918975 0.323934
vn 0.788430 0.596617 0.149755
vn 0.752708 0.657518 0.033186
vn 0.788430 0.596617 0.149755
vn 0.348050 -0.933426 -0.087049
vn 0.752708 0.657518 0.033186
vn -0.882528 -0.075815 -0.464108
vn -0.967255 -0.223126 0.120963
vn -0.954243 0.081508 -0.287711
vn -0.967255 -0.223126 0.120963
vn -0.994331 0.047255 0.095251
vn -0.954243 0.081508 -0.287711
vn -0.967255 -0.223126 0.120963
vn -0.962864 0.026472 0.268688
vn -0.994331 0.047255 0.095251
vn -0.962864 0.026472 0.268688
vn -0.820468 0.482232 0.307057
vn -0.994331 0.047255 0.095251
s off
g piernaIzq_default1
usemtl piernaIzq_Pikachu_PikachuDh_PikachuDh_png2
f 19/1/1 40/2/2 16/3/3
f 45/4/4 44/5/5 22/6/6
f 46/7/7 45/4/8 22/6/9
f 46/8/10 22/6/11 15/9/12
f 16/3/13 46/8/14 15/9/15
f 42/10/16 41/11/17 1/12/18
f 3/13/19 42/14/20 1/12/21
f 43/15/22 42/10/23 3/13/24
f 2/16/25 43/17/26 3/13/27
f 44/5/28 43/15/29 2/16/30
f 7/18/31 44/19/32 2/16/33
f 30/20/34 4/21/35 6/22/36
f 5/23/37 30/20/38 6/22/39
f 7/18/40 30/20/41 5/23/42
f 8/24/43 7/18/44 5/23/45
f 4/21/46 30/20/47 1/25/48
f 41/26/49 4/21/50 1/25/51
f 44/19/52 7/18/53 8/24/54
f 22/6/55 44/19/56 8/24/57
f 47/27/58 46/7/59 16/3/60
f 40/28/61 47/27/62 16/3/63
f 9/29/64 10/30/65 11/31/66
f 12/32/67 36/33/68 35/34/69
f 26/35/70 25/36/71 24/37/72
f 27/38/73 13/39/74 28/40/75
f 14/41/76 22/6/77 21/42/78
f 34/43/79 33/44/80 32/45/81
f 33/44/82 30/46/83 32/45/84
f 30/46/85 33/44/86 1/12/87
f 33/44/88 3/13/89 1/12/90
f 4/21/91 20/47/92 6/22/93
f 20/47/94 5/23/95 6/22/96
f 22/6/97 14/48/98 15/9/99
f 14/49/100 16/3/101 15/9/102
f 23/50/103 10/30/104 9/29/105
f 23/50/106 17/51/107 10/30/108
f 17/52/109 11/31/110 10/30/111
f 18/53/112 38/54/113 19/1/114
f 18/55/115 20/47/116 38/56/117
f 20/47/118 4/21/119 38/57/120
f 16/3/121 18/58/122 19/1/123
f 16/3/124 14/59/125 18/60/126
f 14/61/127 20/47/128 18/62/129
f 14/63/130 21/42/131 20/47/132
f 21/42/133 5/23/134 20/47/135
f 21/42/136 22/6/137 5/23/138
f 22/6/139 8/24/140 5/23/141
f 31/64/142 12/32/143 35/34/144
f 31/65/145 17/66/146 12/32/147
f 17/67/148 36/33/149 12/32/150
f 17/68/151 23/50/152 36/33/153
f 23/50/154 37/69/155 36/33/156
f 23/50/157 9/29/158 37/70/159
f 9/29/160 24/37/161 37/71/162
f 9/29/163 11/31/164 24/37/165
f 11/31/166 17/72/167 24/37/168
f 28/40/169 25/36/170 26/35/171
f 28/40/172 13/39/173 25/36/174
f 13/39/175 24/37/176 25/36/177
f 13/39/178 27/38/179 24/37/180
f 27/38/181 37/73/182 24/37/183
f 27/38/184 28/40/185 37/74/186
f 28/40/187 29/75/188 37/76/189
f 28/40/190 26/35/191 29/77/192
f 26/35/193 7/18/194 29/78/195
f 26/35/196 24/37/197 7/18/198
f 24/37/199 30/46/200 7/18/201
f 24/37/202 17/79/203 30/46/204
f 17/80/205 32/45/206 30/46/207
f 17/81/208 31/82/209 32/45/210
f 31/83/211 34/43/212 32/45/213
f 31/84/214 35/34/215 34/43/216
f 35/34/217 33/44/218 34/43/219
f 35/34/220 36/33/221 33/44/222
f 36/33/223 3/13/224 33/44/225
f 36/33/226 37/85/227 3/13/228
f 37/86/229 2/16/230 3/13/231
f 37/87/232 29/88/233 2/16/234
f 29/89/235 7/18/236 2/16/237
f 19/1/238 38/90/239 40/2/240
f 38/91/241 39/92/242 40/28/243
f 38/93/244 4/21/245 39/94/246
f 4/21/247 41/95/248 39/96/249
