# This file uses centimeters as units for non-parametric coordinates.

mtllib pokeabajo.mtl
g default
v 0.171341 -1.071875 0.924017
v 0.135793 -1.071875 0.866603
v 0.081904 -1.071875 0.825909
v 0.016954 -1.071875 0.807429
v -0.050285 -1.071875 0.813660
v -0.110734 -1.071875 0.843759
v -0.156227 -1.071875 0.893663
v -0.180621 -1.071875 0.956631
v -0.180621 -1.071875 1.024158
v -0.156227 -1.071875 1.087126
v -0.110734 -1.071875 1.137030
v -0.050285 -1.071875 1.167130
v 0.016954 -1.071875 1.173360
v 0.081904 -1.071875 1.154880
v 0.135793 -1.071875 1.114186
v 0.171341 -1.071875 1.056773
v 0.183750 -1.071875 0.990395
v 0.336848 -1.021374 0.859899
v 0.266961 -1.021374 0.747028
v 0.161019 -1.021374 0.667024
v 0.033331 -1.021374 0.630694
v -0.098858 -1.021374 0.642943
v -0.217697 -1.021374 0.702117
v -0.307134 -1.021374 0.800225
v -0.355091 -1.021374 0.924017
v -0.355091 -1.021374 1.056773
v -0.307134 -1.021374 1.180564
v -0.217697 -1.021374 1.278672
v -0.098858 -1.021374 1.337846
v 0.033331 -1.021374 1.350095
v 0.161019 -1.021374 1.313765
v 0.266961 -1.021374 1.233761
v 0.336848 -1.021374 1.120890
v 0.361242 -1.021374 0.990395
v 0.490883 -0.939119 0.800225
v 0.389038 -0.939119 0.635740
v 0.234651 -0.939119 0.519152
v 0.048573 -0.939119 0.466208
v -0.144065 -0.939119 0.484059
v -0.317246 -0.939119 0.570293
v -0.447582 -0.939119 0.713264
v -0.517469 -0.939119 0.893663
v -0.517469 -0.939119 1.087126
v -0.447582 -0.939119 1.267525
v -0.317246 -0.939119 1.410496
v -0.144065 -0.939119 1.496730
v 0.048573 -0.939119 1.514581
v 0.234651 -0.939119 1.461637
v 0.389038 -0.939119 1.345050
v 0.490883 -0.939119 1.180564
v 0.526432 -0.939119 0.990395
v 0.628202 -0.827911 0.747028
v 0.497867 -0.827911 0.536529
v 0.300292 -0.827911 0.387327
v 0.062161 -0.827911 0.319573
v -0.184365 -0.827911 0.342417
v -0.405992 -0.827911 0.452774
v -0.572788 -0.827911 0.635739
v -0.662225 -0.827911 0.866603
v -0.662225 -0.827911 1.114186
v -0.572788 -0.827911 1.345050
v -0.405992 -0.827911 1.528015
v -0.184366 -0.827911 1.638372
v 0.062161 -0.827911 1.661216
v 0.300292 -0.827911 1.593462
v 0.497867 -0.827911 1.444260
v 0.628202 -0.827911 1.233761
v 0.673696 -0.827911 0.990395
v 0.744129 -0.691536 0.702118
v 0.589742 -0.691536 0.452774
v 0.355707 -0.691536 0.276039
v 0.073632 -0.691536 0.195782
v -0.218388 -0.691536 0.222841
v -0.480913 -0.691536 0.353563
v -0.678488 -0.691536 0.570293
v -0.784429 -0.691536 0.843759
v -0.784429 -0.691536 1.137030
v -0.678488 -0.691536 1.410496
v -0.480913 -0.691536 1.627226
v -0.218388 -0.691536 1.757948
v 0.073632 -0.691536 1.785008
v 0.355707 -0.691536 1.704750
v 0.589742 -0.691536 1.528015
v 0.744129 -0.691536 1.278672
v 0.798017 -0.691536 0.990395
v 0.834715 -0.534640 0.667024
v 0.661534 -0.534640 0.387327
v 0.399009 -0.534640 0.189077
v 0.082595 -0.534640 0.099050
v -0.244973 -0.534640 0.129404
v -0.539456 -0.534640 0.276039
v -0.761083 -0.534640 0.519152
v -0.879921 -0.534640 0.825909
v -0.879921 -0.534640 1.154880
v -0.761083 -0.534640 1.461637
v -0.539456 -0.534640 1.704750
v -0.244973 -0.534640 1.851386
v 0.082595 -0.534640 1.881739
v 0.399009 -0.534640 1.791712
v 0.661534 -0.534640 1.593462
v 0.834715 -0.534640 1.313765
v 0.895163 -0.534640 0.990395
v 0.896876 -0.362565 0.642943
v 0.710798 -0.362565 0.342417
v 0.428723 -0.362565 0.129404
v 0.088746 -0.362565 0.032672
v -0.263216 -0.362565 0.065286
v -0.579629 -0.362565 0.222841
v -0.817761 -0.362565 0.484059
v -0.945449 -0.362565 0.813660
v -0.945449 -0.362565 1.167130
v -0.817761 -0.362565 1.496730
v -0.579629 -0.362565 1.757948
v -0.263216 -0.362565 1.915503
v 0.088746 -0.362565 1.948117
v 0.428723 -0.362565 1.851386
v 0.710798 -0.362565 1.638372
v 0.896876 -0.362565 1.337846
v 0.961826 -0.362565 0.990395
v 0.928494 -0.181170 0.630694
v 0.735856 -0.181170 0.319573
v 0.443837 -0.181170 0.099050
v 0.091875 -0.181170 -0.001092
v -0.272495 -0.181170 0.032672
v -0.600064 -0.181170 0.195782
v -0.846590 -0.181170 0.466208
v -0.978780 -0.181170 0.807429
v -0.978780 -0.181170 1.173360
v -0.846590 -0.181170 1.514581
v -0.600064 -0.181170 1.785008
v -0.272496 -0.181170 1.948117
v 0.091875 -0.181170 1.981881
v 0.443837 -0.181170 1.881739
v 0.735856 -0.181170 1.661216
v 0.928494 -0.181170 1.350095
v 0.995734 -0.181170 0.990395
v 0.000000 -1.088902 0.990395
v 0.928494 0.003367 0.630694
v 0.735856 0.003367 0.319573
v 0.443837 0.003367 0.099050
v 0.091875 0.003367 -0.001092
v -0.272495 0.003367 0.032672
v -0.600064 0.003367 0.195782
v -0.846590 0.003367 0.466208
v -0.978780 0.003367 0.807429
v -0.978780 0.003367 1.173360
v -0.846590 0.003367 1.514581
v -0.600064 0.003367 1.785008
v -0.272496 0.003367 1.948117
v 0.091875 0.003367 1.981881
v 0.443837 0.003367 1.881739
v 0.735856 0.003367 1.661216
v 0.928494 0.003367 1.350095
v 0.995734 0.003367 0.990395
vt 0.941476 0.048743
vt 0.941701 0.051513
vt 0.934393 0.053532
vt 0.933932 0.047985
vt 0.942912 0.054015
vt 0.936826 0.058537
vt 0.944944 0.055910
vt 0.940903 0.062326
vt 0.947524 0.056943
vt 0.946073 0.064385
vt 0.950303 0.056975
vt 0.951639 0.064439
vt 0.952906 0.056000
vt 0.956847 0.062478
vt 0.954980 0.054152
vt 0.960996 0.058767
vt 0.956247 0.051678
vt 0.963524 0.053809
vt 0.956535 0.048914
vt 0.964090 0.048273
vt 0.955805 0.046233
vt 0.962618 0.042905
vt 0.954155 0.043996
vt 0.959307 0.038432
vt 0.951809 0.042506
vt 0.954603 0.035457
vt 0.949084 0.041965
vt 0.949142 0.034383
vt 0.946346 0.042444
vt 0.943662 0.035353
vt 0.943967 0.043880
vt 0.938902 0.038238
vt 0.942267 0.046079
vt 0.935506 0.042647
vt 0.927035 0.055596
vt 0.926325 0.047253
vt 0.930711 0.063120
vt 0.936857 0.068808
vt 0.944642 0.071892
vt 0.953016 0.071956
vt 0.960847 0.068990
vt 0.967077 0.063395
vt 0.970867 0.055927
vt 0.971702 0.047595
vt 0.969471 0.039524
vt 0.964476 0.032803
vt 0.957389 0.028342
vt 0.949170 0.026741
vt 0.940927 0.028217
vt 0.933774 0.032572
vt 0.928678 0.039216
vt 0.919591 0.057716
vt 0.918618 0.046540
vt 0.924535 0.067786
vt 0.932783 0.075390
vt 0.943221 0.079501
vt 0.954439 0.079563
vt 0.964922 0.075570
vt 0.973255 0.068058
vt 0.978311 0.058044
vt 0.979409 0.046880
vt 0.976399 0.036073
vt 0.969689 0.027083
vt 0.960184 0.021124
vt 0.949169 0.019001
vt 0.938130 0.021000
vt 0.928559 0.026853
vt 0.921749 0.035767
vt 0.912017 0.059897
vt 0.910768 0.045838
vt 0.918261 0.072556
vt 0.928656 0.082105
vt 0.941798 0.087253
vt 0.955913 0.087306
vt 0.969093 0.082257
vt 0.979560 0.072788
vt 0.985900 0.060176
vt 0.987255 0.046127
vt 0.983443 0.032536
vt 0.974980 0.021241
vt 0.963008 0.013765
vt 0.949143 0.011119
vt 0.935259 0.013660
vt 0.923230 0.021045
vt 0.914682 0.032277
vt 0.904255 0.062151
vt 0.902716 0.045135
vt 0.911837 0.077461
vt 0.924438 0.088998
vt 0.940355 0.095205
vt 0.957440 0.095243
vt 0.973385 0.089106
vt 0.986036 0.077623
vt 0.993685 0.062347
vt 0.995298 0.045338
vt 0.990659 0.028895
vt 0.980393 0.015239
vt 0.965887 0.006213
vt 0.949100 0.003037
vt 0.932299 0.006140
vt 0.917754 0.015102
vt 0.907428 0.028713
vt 0.915622 0.307074
vt 1.007878 0.307364
vt 1.007767 0.379609
vt 0.915562 0.379431
vt 1.099915 0.307801
vt 1.099768 0.379878
vt 1.191663 0.308323
vt 1.191501 0.380199
vt 1.283095 0.308859
vt 1.282940 0.380528
vt -0.272737 0.308859
vt -0.181607 0.309337
vt -0.181735 0.380821
vt -0.272893 0.380528
vt -0.090723 0.309694
vt -0.090807 0.381040
vt -0.000001 0.309885
vt -0.000031 0.381157
vt 0.090664 0.309885
vt 0.090694 0.381157
vt 0.181386 0.309694
vt 0.181471 0.381040
vt 0.272270 0.309337
vt 0.272398 0.380821
vt 0.363401 0.308859
vt 0.363556 0.380528
vt 0.454833 0.308323
vt 0.454995 0.380199
vt 0.546581 0.307801
vt 0.546728 0.379878
vt 0.638618 0.307364
vt 0.638729 0.379609
vt 0.730874 0.307074
vt 0.730933 0.379431
vt 0.823248 0.306972
vt 0.823248 0.379369
vt 1.007716 0.451879
vt 0.915535 0.451819
vt 1.099701 0.451969
vt 1.191427 0.452077
vt 1.282869 0.452188
vt -0.181794 0.452287
vt -0.272964 0.452188
vt -0.090846 0.452361
vt -0.000044 0.452401
vt 0.090707 0.452401
vt 0.181509 0.452361
vt 0.272457 0.452287
vt 0.363627 0.452188
vt 0.455069 0.452077
vt 0.546795 0.451969
vt 0.638780 0.451879
vt 0.730961 0.451819
vt 0.823248 0.451798
vt 1.007716 0.524156
vt 0.915535 0.524216
vt 1.099701 0.524065
vt 1.191427 0.523957
vt 1.282869 0.523846
vt -0.181794 0.523747
vt -0.272964 0.523846
vt -0.090846 0.523673
vt -0.000044 0.523634
vt 0.090707 0.523634
vt 0.181509 0.523673
vt 0.272457 0.523747
vt 0.363627 0.523846
vt 0.455069 0.523957
vt 0.546795 0.524065
vt 0.638780 0.524156
vt 0.730961 0.524216
vt 0.823248 0.524237
vt 0.948998 0.049526
vn 0.220119 -0.971739 -0.085275
vn 0.174450 -0.971739 -0.159033
vn 0.288520 -0.920639 -0.263021
vn 0.364051 -0.920639 -0.141034
vn 0.105221 -0.971739 -0.211312
vn 0.174023 -0.920639 -0.349485
vn 0.021781 -0.971739 -0.235053
vn 0.036023 -0.920639 -0.388749
vn -0.064601 -0.971739 -0.227048
vn -0.106842 -0.920639 -0.375511
vn -0.142258 -0.971739 -0.188379
vn -0.235278 -0.920639 -0.311558
vn -0.200702 -0.971739 -0.124269
vn -0.331937 -0.920639 -0.205527
vn -0.232040 -0.971739 -0.043376
vn -0.383767 -0.920639 -0.071739
vn -0.232040 -0.971739 0.043376
vn -0.383767 -0.920639 0.071738
vn -0.200702 -0.971739 0.124269
vn -0.331937 -0.920639 0.205527
vn -0.142258 -0.971739 0.188380
vn -0.235278 -0.920639 0.311558
vn -0.064601 -0.971739 0.227048
vn -0.106842 -0.920639 0.375511
vn 0.021781 -0.971739 0.235052
vn 0.036023 -0.920639 0.388749
vn 0.105221 -0.971739 0.211312
vn 0.174023 -0.920639 0.349485
vn 0.174450 -0.971739 0.159033
vn 0.288520 -0.920639 0.263021
vn 0.220119 -0.971739 0.085275
vn 0.364051 -0.920639 0.141034
vn 0.236060 -0.971739 0.000000
vn 0.390415 -0.920639 0.000000
vn 0.403256 -0.838000 -0.367616
vn 0.508823 -0.838000 -0.197119
vn 0.243226 -0.838000 -0.488465
vn 0.050348 -0.838000 -0.543343
vn -0.149330 -0.838000 -0.524840
vn -0.328840 -0.838000 -0.435454
vn -0.463939 -0.838000 -0.287259
vn -0.536380 -0.838000 -0.100267
vn -0.536380 -0.838000 0.100267
vn -0.463939 -0.838000 0.287259
vn -0.328840 -0.838000 0.435455
vn -0.149330 -0.838000 0.524840
vn 0.050348 -0.838000 0.543343
vn 0.243226 -0.838000 0.488464
vn 0.403255 -0.838000 0.367616
vn 0.508823 -0.838000 0.197119
vn 0.545671 -0.838000 0.000000
vn 0.507254 -0.727227 -0.462423
vn 0.640046 -0.727227 -0.247955
vn 0.305954 -0.727227 -0.614437
vn 0.063333 -0.727227 -0.683469
vn -0.187841 -0.727227 -0.660194
vn -0.413647 -0.727227 -0.547757
vn -0.583586 -0.727227 -0.361341
vn -0.674710 -0.727227 -0.126125
vn -0.674710 -0.727227 0.126125
vn -0.583586 -0.727227 0.361341
vn -0.413647 -0.727227 0.547756
vn -0.187842 -0.727227 0.660194
vn 0.063333 -0.727227 0.683469
vn 0.305954 -0.727227 0.614437
vn 0.507254 -0.727227 0.462423
vn 0.640046 -0.727227 0.247955
vn 0.686397 -0.727227 -0.000000
vn 0.595479 -0.592214 -0.542851
vn 0.751368 -0.592214 -0.291082
vn 0.359167 -0.592214 -0.721305
vn 0.074348 -0.592214 -0.802343
vn -0.220512 -0.592214 -0.775020
vn -0.485591 -0.592214 -0.643027
vn -0.685088 -0.592214 -0.424189
vn -0.792061 -0.592214 -0.148062
vn -0.792061 -0.592214 0.148062
vn -0.685088 -0.592214 0.424189
vn -0.485591 -0.592214 0.643027
vn -0.220512 -0.592214 0.775020
vn 0.074348 -0.592214 0.802343
vn 0.359167 -0.592214 0.721305
vn 0.595479 -0.592214 0.542851
vn 0.751368 -0.592214 0.291082
vn 0.805780 -0.592214 -0.000000
vn 0.664509 -0.437559 -0.605780
vn 0.838470 -0.437559 -0.324825
vn 0.400804 -0.437559 -0.804922
vn 0.082967 -0.437559 -0.895354
vn -0.246075 -0.437558 -0.864864
vn -0.541883 -0.437558 -0.717569
vn -0.764507 -0.437558 -0.473363
vn -0.883880 -0.437559 -0.165226
vn -0.883880 -0.437558 0.165226
vn -0.764507 -0.437558 0.473363
vn -0.541883 -0.437558 0.717569
vn -0.246075 -0.437558 0.864864
vn 0.082967 -0.437559 0.895354
vn 0.400803 -0.437559 0.804922
vn 0.664509 -0.437558 0.605780
vn 0.838470 -0.437559 0.324825
vn 0.899190 -0.437559 -0.000000
vn 0.711884 -0.268441 -0.648968
vn 0.898247 -0.268441 -0.347983
vn 0.429378 -0.268441 -0.862307
vn 0.088882 -0.268441 -0.959187
vn -0.263618 -0.268441 -0.926523
vn -0.580516 -0.268441 -0.768727
vn -0.819011 -0.268441 -0.507110
vn -0.946894 -0.268442 -0.177005
vn -0.946894 -0.268441 0.177005
vn -0.819011 -0.268441 0.507110
vn -0.580516 -0.268441 0.768727
vn -0.263618 -0.268441 0.926523
vn 0.088882 -0.268441 0.959187
vn 0.429378 -0.268441 0.862307
vn 0.711884 -0.268441 0.648969
vn 0.898247 -0.268441 0.347983
vn 0.963296 -0.268441 -0.000000
vn 0.735978 -0.090473 -0.670933
vn 0.928648 -0.090473 -0.359760
vn 0.443910 -0.090473 -0.891492
vn 0.091890 -0.090473 -0.991651
vn -0.272541 -0.090473 -0.957881
vn -0.600163 -0.090473 -0.794745
vn -0.846730 -0.090474 -0.524273
vn -0.978942 -0.090474 -0.182996
vn -0.978942 -0.090473 0.182996
vn -0.846730 -0.090473 0.524273
vn -0.600163 -0.090473 0.794745
vn -0.272541 -0.090473 0.957881
vn 0.091890 -0.090473 0.991651
vn 0.443910 -0.090473 0.891492
vn 0.735978 -0.090473 0.670933
vn 0.928648 -0.090473 0.359760
vn 0.995899 -0.090473 -0.000000
vn 0.739009 0.000000 -0.673696
vn 0.932472 0.000000 -0.361242
vn 0.445738 0.000000 -0.895163
vn 0.092269 0.000000 -0.995734
vn -0.273663 0.000000 -0.961826
vn -0.602635 0.000000 -0.798017
vn -0.850217 0.000000 -0.526432
vn -0.982973 0.000000 -0.183750
vn -0.982973 0.000000 0.183749
vn -0.850217 0.000000 0.526432
vn -0.602635 0.000000 0.798017
vn -0.273663 0.000000 0.961826
vn 0.092268 0.000000 0.995734
vn 0.445738 0.000000 0.895163
vn 0.739009 0.000000 0.673696
vn 0.932472 0.000000 0.361242
vn 1.000000 0.000000 -0.000000
vn 0.000000 -1.000000 0.000000
s 1
g polySurface1 pSphere1
usemtl lambert2SG
f 1/1/1 2/2/2 19/3/3 18/4/4
f 2/2/2 3/5/5 20/6/6 19/3/3
f 3/5/5 4/7/7 21/8/8 20/6/6
f 4/7/7 5/9/9 22/10/10 21/8/8
f 5/9/9 6/11/11 23/12/12 22/10/10
f 6/11/11 7/13/13 24/14/14 23/12/12
f 7/13/13 8/15/15 25/16/16 24/14/14
f 8/15/15 9/17/17 26/18/18 25/16/16
f 9/17/17 10/19/19 27/20/20 26/18/18
f 10/19/19 11/21/21 28/22/22 27/20/20
f 11/21/21 12/23/23 29/24/24 28/22/22
f 12/23/23 13/25/25 30/26/26 29/24/24
f 13/25/25 14/27/27 31/28/28 30/26/26
f 14/27/27 15/29/29 32/30/30 31/28/28
f 15/29/29 16/31/31 33/32/32 32/30/30
f 16/31/31 17/33/33 34/34/34 33/32/32
f 17/33/33 1/1/1 18/4/4 34/34/34
f 18/4/4 19/3/3 36/35/35 35/36/36
f 19/3/3 20/6/6 37/37/37 36/35/35
f 20/6/6 21/8/8 38/38/38 37/37/37
f 21/8/8 22/10/10 39/39/39 38/38/38
f 22/10/10 23/12/12 40/40/40 39/39/39
f 23/12/12 24/14/14 41/41/41 40/40/40
f 24/14/14 25/16/16 42/42/42 41/41/41
f 25/16/16 26/18/18 43/43/43 42/42/42
f 26/18/18 27/20/20 44/44/44 43/43/43
f 27/20/20 28/22/22 45/45/45 44/44/44
f 28/22/22 29/24/24 46/46/46 45/45/45
f 29/24/24 30/26/26 47/47/47 46/46/46
f 30/26/26 31/28/28 48/48/48 47/47/47
f 31/28/28 32/30/30 49/49/49 48/48/48
f 32/30/30 33/32/32 50/50/50 49/49/49
f 33/32/32 34/34/34 51/51/51 50/50/50
f 34/34/34 18/4/4 35/36/36 51/51/51
f 35/36/36 36/35/35 53/52/52 52/53/53
f 36/35/35 37/37/37 54/54/54 53/52/52
f 37/37/37 38/38/38 55/55/55 54/54/54
f 38/38/38 39/39/39 56/56/56 55/55/55
f 39/39/39 40/40/40 57/57/57 56/56/56
f 40/40/40 41/41/41 58/58/58 57/57/57
f 41/41/41 42/42/42 59/59/59 58/58/58
f 42/42/42 43/43/43 60/60/60 59/59/59
f 43/43/43 44/44/44 61/61/61 60/60/60
f 44/44/44 45/45/45 62/62/62 61/61/61
f 45/45/45 46/46/46 63/63/63 62/62/62
f 46/46/46 47/47/47 64/64/64 63/63/63
f 47/47/47 48/48/48 65/65/65 64/64/64
f 48/48/48 49/49/49 66/66/66 65/65/65
f 49/49/49 50/50/50 67/67/67 66/66/66
f 50/50/50 51/51/51 68/68/68 67/67/67
f 51/51/51 35/36/36 52/53/53 68/68/68
f 52/53/53 53/52/52 70/69/69 69/70/70
f 53/52/52 54/54/54 71/71/71 70/69/69
f 54/54/54 55/55/55 72/72/72 71/71/71
f 55/55/55 56/56/56 73/73/73 72/72/72
f 56/56/56 57/57/57 74/74/74 73/73/73
f 57/57/57 58/58/58 75/75/75 74/74/74
f 58/58/58 59/59/59 76/76/76 75/75/75
f 59/59/59 60/60/60 77/77/77 76/76/76
f 60/60/60 61/61/61 78/78/78 77/77/77
f 61/61/61 62/62/62 79/79/79 78/78/78
f 62/62/62 63/63/63 80/80/80 79/79/79
f 63/63/63 64/64/64 81/81/81 80/80/80
f 64/64/64 65/65/65 82/82/82 81/81/81
f 65/65/65 66/66/66 83/83/83 82/82/82
f 66/66/66 67/67/67 84/84/84 83/83/83
f 67/67/67 68/68/68 85/85/85 84/84/84
f 68/68/68 52/53/53 69/70/70 85/85/85
f 69/70/70 70/69/69 87/86/86 86/87/87
f 70/69/69 71/71/71 88/88/88 87/86/86
f 71/71/71 72/72/72 89/89/89 88/88/88
f 72/72/72 73/73/73 90/90/90 89/89/89
f 73/73/73 74/74/74 91/91/91 90/90/90
f 74/74/74 75/75/75 92/92/92 91/91/91
f 75/75/75 76/76/76 93/93/93 92/92/92
f 76/76/76 77/77/77 94/94/94 93/93/93
f 77/77/77 78/78/78 95/95/95 94/94/94
f 78/78/78 79/79/79 96/96/96 95/95/95
f 79/79/79 80/80/80 97/97/97 96/96/96
f 80/80/80 81/81/81 98/98/98 97/97/97
f 81/81/81 82/82/82 99/99/99 98/98/98
f 82/82/82 83/83/83 100/100/100 99/99/99
f 83/83/83 84/84/84 101/101/101 100/100/100
f 84/84/84 85/85/85 102/102/102 101/101/101
f 85/85/85 69/70/70 86/87/87 102/102/102
f 86/103/87 87/104/86 104/105/103 103/106/104
f 87/104/86 88/107/88 105/108/105 104/105/103
f 88/107/88 89/109/89 106/110/106 105/108/105
f 89/109/89 90/111/90 107/112/107 106/110/106
f 90/113/90 91/114/91 108/115/108 107/116/107
f 91/114/91 92/117/92 109/118/109 108/115/108
f 92/117/92 93/119/93 110/120/110 109/118/109
f 93/119/93 94/121/94 111/122/111 110/120/110
f 94/121/94 95/123/95 112/124/112 111/122/111
f 95/123/95 96/125/96 113/126/113 112/124/112
f 96/125/96 97/127/97 114/128/114 113/126/113
f 97/127/97 98/129/98 115/130/115 114/128/114
f 98/129/98 99/131/99 116/132/116 115/130/115
f 99/131/99 100/133/100 117/134/117 116/132/116
f 100/133/100 101/135/101 118/136/118 117/134/117
f 101/135/101 102/137/102 119/138/119 118/136/118
f 102/137/102 86/103/87 103/106/104 119/138/119
f 103/106/104 104/105/103 121/139/120 120/140/121
f 104/105/103 105/108/105 122/141/122 121/139/120
f 105/108/105 106/110/106 123/142/123 122/141/122
f 106/110/106 107/112/107 124/143/124 123/142/123
f 107/116/107 108/115/108 125/144/125 124/145/124
f 108/115/108 109/118/109 126/146/126 125/144/125
f 109/118/109 110/120/110 127/147/127 126/146/126
f 110/120/110 111/122/111 128/148/128 127/147/127
f 111/122/111 112/124/112 129/149/129 128/148/128
f 112/124/112 113/126/113 130/150/130 129/149/129
f 113/126/113 114/128/114 131/151/131 130/150/130
f 114/128/114 115/130/115 132/152/132 131/151/131
f 115/130/115 116/132/116 133/153/133 132/152/132
f 116/132/116 117/134/117 134/154/134 133/153/133
f 117/134/117 118/136/118 135/155/135 134/154/134
f 118/136/118 119/138/119 136/156/136 135/155/135
f 119/138/119 103/106/104 120/140/121 136/156/136
f 120/140/121 121/139/120 139/157/137 138/158/138
f 121/139/120 122/141/122 140/159/139 139/157/137
f 122/141/122 123/142/123 141/160/140 140/159/139
f 123/142/123 124/143/124 142/161/141 141/160/140
f 124/145/124 125/144/125 143/162/142 142/163/141
f 125/144/125 126/146/126 144/164/143 143/162/142
f 126/146/126 127/147/127 145/165/144 144/164/143
f 127/147/127 128/148/128 146/166/145 145/165/144
f 128/148/128 129/149/129 147/167/146 146/166/145
f 129/149/129 130/150/130 148/168/147 147/167/146
f 130/150/130 131/151/131 149/169/148 148/168/147
f 131/151/131 132/152/132 150/170/149 149/169/148
f 132/152/132 133/153/133 151/171/150 150/170/149
f 133/153/133 134/154/134 152/172/151 151/171/150
f 134/154/134 135/155/135 153/173/152 152/172/151
f 135/155/135 136/156/136 154/174/153 153/173/152
f 136/156/136 120/140/121 138/158/138 154/174/153
f 2/2/2 1/1/1 137/175/154
f 3/5/5 2/2/2 137/175/154
f 4/7/7 3/5/5 137/175/154
f 5/9/9 4/7/7 137/175/154
f 6/11/11 5/9/9 137/175/154
f 7/13/13 6/11/11 137/175/154
f 8/15/15 7/13/13 137/175/154
f 9/17/17 8/15/15 137/175/154
f 10/19/19 9/17/17 137/175/154
f 11/21/21 10/19/19 137/175/154
f 12/23/23 11/21/21 137/175/154
f 13/25/25 12/23/23 137/175/154
f 14/27/27 13/25/25 137/175/154
f 15/29/29 14/27/27 137/175/154
f 16/31/31 15/29/29 137/175/154
f 17/33/33 16/31/31 137/175/154
f 1/1/1 17/33/33 137/175/154
