# This file uses centimeters as units for non-parametric coordinates.

mtllib maquinaB.mtl
g default
v 4.558914 2.099057 11.402382
v 4.557886 1.688705 10.133765
v 4.558914 2.950890 11.126844
v 4.557886 2.540538 9.858228
v 3.225914 2.951206 11.127822
v 3.224886 2.540855 9.859206
v 3.225915 2.099373 11.403360
v 3.224887 1.689021 10.134743
vt 0.999281 0.000582
vt 0.999818 -0.000147
vt 0.375000 0.250000
vt 0.002178 0.996075
vt 1.000131 0.997107
vt 0.625000 0.500000
vt 0.375000 0.750000
vt -0.000131 0.000655
vt 0.375000 1.000000
vt 0.625000 1.000000
vt 0.999078 -0.000825
vt 0.999078 0.996075
vt -0.000537 0.000582
vt -0.000537 1.000400
vt 0.998226 -0.001250
vt 0.625000 0.750000
vt 0.375000 0.500000
vt 0.001774 0.999012
vt 0.000182 0.999489
vt 0.625000 0.250000
vt 0.000182 -0.000147
vt 0.999281 1.000400
vt 0.002178 -0.000825
vt 0.999818 0.999489
vn 1.000000 -0.000237 -0.000734
vn 1.000000 -0.000237 -0.000734
vn 1.000000 -0.000237 -0.000734
vn 1.000000 -0.000237 -0.000734
vn -0.000000 0.951463 -0.307764
vn -0.000000 0.951463 -0.307764
vn -0.000000 0.951463 -0.307764
vn -0.000000 0.951463 -0.307764
vn -1.000000 0.000237 0.000734
vn -1.000000 0.000237 0.000734
vn -1.000000 0.000237 0.000734
vn -1.000000 0.000237 0.000734
vn -0.000000 -0.951463 0.307764
vn -0.000000 -0.951463 0.307764
vn -0.000000 -0.951463 0.307764
vn -0.000000 -0.951463 0.307764
vn -0.000771 -0.307764 -0.951463
vn -0.000771 -0.307764 -0.951463
vn -0.000771 -0.307764 -0.951463
vn -0.000771 -0.307764 -0.951463
vn 0.000771 0.307764 0.951463
vn 0.000771 0.307764 0.951463
vn 0.000771 0.307764 0.951463
vn 0.000771 0.307764 0.951463
s off
g pasted__pCube1 group
usemtl pasted__lambert78SG
f 1/21/1 2/2/2 4/24/3 3/19/4
usemtl pasted__lambert75SG
f 3/3/5 4/20/6 6/6/7 5/17/8
usemtl pasted__lambert82SG
f 5/5/9 6/18/10 8/8/11 7/15/12
usemtl pasted__lambert76SG
f 7/7/13 8/16/14 2/10/15 1/9/16
usemtl pasted__lambert79SG
f 2/23/17 8/11/18 6/12/19 4/4/20
usemtl pasted__lambert81SG
f 7/13/21 1/1/22 3/22/23 5/14/24
