# This file uses centimeters as units for non-parametric coordinates.

mtllib cola.mtl
g default
v 0.000473 1.097649 -1.021471
v 0.015722 0.692438 -1.028322
v 0.006573 -0.011119 -0.483318
v -0.011727 0.013745 -0.549820
v 0.012672 0.013745 -0.549820
v 0.009622 0.492416 -0.601529
v 0.000473 0.328152 -0.798154
v 0.000473 -0.040095 -0.577218
v 0.000473 0.819012 -0.668464
v 0.012724 0.046319 -0.437113
v 0.009622 0.560905 -0.743589
v 0.000473 0.533235 -0.326782
v -0.011727 0.339193 -0.587400
v 0.012672 -0.099026 -0.328683
v 0.000473 -0.117394 -0.334829
v 0.000473 -0.077584 -0.323284
v -0.005627 -0.011119 -0.483318
v 0.000473 -0.061738 -0.508715
v -0.011727 -0.099026 -0.328683
v -0.014776 0.692438 -1.028322
v -0.008677 0.560905 -0.743589
v -0.008677 0.492416 -0.601529
v 0.012672 0.172800 -0.600422
v 0.000473 0.068328 -0.725436
v -0.011727 0.172800 -0.600422
v 0.000473 0.183558 -0.438527
v -0.011727 0.093080 -0.572856
v 0.012628 0.093080 -0.572856
v 0.012672 0.339193 -0.587400
vt 0.195160 0.398987
vt 0.181122 0.463257
vt 0.236725 0.432953
vt 0.314453 0.270538
vt 0.289185 0.385437
vt 0.243439 0.306885
vt 0.059845 0.487610
vt 0.060242 0.537994
vt 0.046204 0.540405
vt 0.031677 0.355743
vt 0.046570 0.455688
vt 0.046570 0.455688
vt 0.181122 0.463257
vt 0.004944 0.465546
vt 0.046570 0.455688
vt 0.236725 0.432953
vt 0.243439 0.306885
vt 0.059845 0.487610
vt 0.046570 0.455688
vt 0.014374 0.496948
vt 0.046570 0.455688
vt 0.239288 0.390808
vt 0.261902 0.498169
vt 0.080200 0.476715
vt 0.091309 0.439453
vt 0.236725 0.432953
vt 0.210968 0.450897
vt 0.236725 0.432953
vt 0.059845 0.487610
vt 0.059845 0.487610
vt 0.193665 0.502960
vt 0.210968 0.450897
vt 0.210968 0.450897
vt 0.243439 0.306885
vt 0.243439 0.306885
vt 0.239288 0.390808
vt 0.239288 0.390808
vt 0.031921 0.542145
vt 0.059845 0.487610
vt 0.046204 0.540405
vt 0.059845 0.487610
vt 0.046204 0.540405
vt 0.046204 0.540405
vt 0.046570 0.455688
vt 0.059845 0.487610
vt 0.091309 0.439453
vt 0.046570 0.455688
vt 0.091309 0.439453
vt 0.046570 0.455688
vt 0.236725 0.432953
vt 0.181122 0.463257
vt 0.243439 0.306885
vt 0.239288 0.390808
vt 0.243439 0.306885
vt 0.236725 0.432953
vt 0.239288 0.390808
vt 0.236725 0.432953
vt 0.239288 0.390808
vt 0.210968 0.450897
vt 0.210968 0.450897
vt 0.210968 0.450897
vt 0.129730 0.374664
vt 0.129730 0.374664
vt 0.091309 0.439453
vt 0.129730 0.374664
vt 0.091309 0.439453
vt 0.163727 0.465210
vt 0.129730 0.374664
vt 0.091309 0.439453
vt 0.091309 0.439453
vt 0.236725 0.432953
vt 0.181122 0.463257
vt 0.181122 0.463257
vn 0.000012 0.139326 -0.990247
vn -0.996955 -0.018982 -0.075637
vn -0.999474 0.031236 -0.008718
vn 0.000000 0.821399 0.570354
vn 0.842303 0.402734 0.358235
vn 0.997036 -0.020569 -0.074134
vn 0.997725 -0.031727 0.059476
vn 0.000000 0.898340 0.439301
vn 0.998344 -0.057526 0.000100
vn -0.000006 -0.281620 -0.959526
vn 0.973853 -0.191088 -0.122869
vn -0.988968 -0.143979 -0.034833
vn 0.996956 -0.019110 -0.075588
vn -0.996955 -0.018982 -0.075637
vn 0.000012 0.139326 -0.990247
vn 0.973853 -0.191088 -0.122869
vn 0.000004 -0.854904 -0.518786
vn -0.988968 -0.143979 -0.034833
vn 0.998834 0.036382 -0.031731
vn 0.000012 0.139326 -0.990247
vn -0.999474 0.031236 -0.008718
vn -0.997081 -0.019733 -0.073751
vn 0.000000 0.821399 0.570354
vn 0.997036 -0.020569 -0.074134
vn -0.993407 0.072587 0.088736
vn -0.988968 -0.143979 -0.034833
vn -0.000001 -0.893990 -0.448086
vn -0.988968 -0.143979 -0.034833
vn 0.000004 -0.854904 -0.518786
vn -0.000001 -0.893990 -0.448086
vn 0.997036 -0.020569 -0.074134
vn 0.842303 0.402734 0.358235
vn 0.999821 -0.017812 0.006429
vn 0.842303 0.402734 0.358235
vn -0.427618 0.625088 0.652999
vn 0.999821 -0.017812 0.006429
vn 0.997725 -0.031727 0.059476
vn 0.973853 -0.191088 -0.122869
vn 0.084621 0.411808 0.907333
vn 0.973853 -0.191088 -0.122869
vn 0.998695 -0.003085 0.050970
vn 0.084621 0.411808 0.907333
vn 0.999821 -0.017812 0.006429
vn -0.427618 0.625088 0.652999
vn 0.998834 0.036382 -0.031731
vn -0.427618 0.625088 0.652999
vn 0.982763 -0.040700 0.180336
vn 0.998834 0.036382 -0.031731
vn 0.084621 0.411808 0.907333
vn -0.993407 0.072587 0.088736
vn 0.997725 -0.031727 0.059476
vn -0.993407 0.072587 0.088736
vn 0.000000 0.898340 0.439301
vn 0.997725 -0.031727 0.059476
vn 0.000016 -0.001482 0.999999
vn 0.982763 -0.040700 0.180336
vn -0.982763 -0.040699 0.180333
vn 0.982763 -0.040700 0.180336
vn -0.427618 0.625088 0.652999
vn -0.982763 -0.040699 0.180333
vn 0.842303 0.402734 0.358235
vn 0.000000 0.821399 0.570354
vn -0.997081 -0.019733 -0.073751
vn -0.997081 -0.019733 -0.073751
vn -0.999311 -0.036901 -0.003961
vn 0.842303 0.402734 0.358235
vn -0.999311 -0.036901 -0.003961
vn -0.999474 0.031236 -0.008718
vn 0.842303 0.402734 0.358235
vn 0.997725 -0.031727 0.059476
vn -0.000001 -0.893990 -0.448086
vn 0.973853 -0.191088 -0.122869
vn 0.997725 -0.031727 0.059476
vn 0.998344 -0.057526 0.000100
vn -0.000001 -0.893990 -0.448086
vn 0.998344 -0.057526 0.000100
vn 0.000000 -0.952403 -0.304841
vn -0.000001 -0.893990 -0.448086
vn -0.993407 0.072587 0.088736
vn -0.998344 -0.057526 0.000100
vn 0.000000 0.898340 0.439301
vn -0.993407 0.072587 0.088736
vn -0.000001 -0.893990 -0.448086
vn -0.998344 -0.057526 0.000100
vn -0.000001 -0.893990 -0.448086
vn 0.000000 -0.952403 -0.304841
vn -0.998344 -0.057526 0.000100
vn -0.000006 -0.281620 -0.959526
vn 0.998695 -0.003085 0.050970
vn 0.973853 -0.191088 -0.122869
vn 0.084621 0.411808 0.907333
vn -0.988968 -0.143979 -0.034833
vn -0.993407 0.072587 0.088736
vn 0.084621 0.411808 0.907333
vn -0.997096 -0.003292 0.076081
vn -0.988968 -0.143979 -0.034833
vn -0.997096 -0.003292 0.076081
vn -0.000006 -0.281620 -0.959526
vn -0.988968 -0.143979 -0.034833
vn 0.998834 0.036382 -0.031731
vn 0.996956 -0.019110 -0.075588
vn 0.000012 0.139326 -0.990247
vn 0.997036 -0.020569 -0.074134
vn 0.999821 -0.017812 0.006429
vn -0.997081 -0.019733 -0.073751
vn 0.999821 -0.017812 0.006429
vn -0.999311 -0.036901 -0.003961
vn -0.997081 -0.019733 -0.073751
vn 0.999821 -0.017812 0.006429
vn 0.998834 0.036382 -0.031731
vn -0.999311 -0.036901 -0.003961
vn 0.998834 0.036382 -0.031731
vn -0.999474 0.031236 -0.008718
vn -0.999311 -0.036901 -0.003961
vn 0.842303 0.402734 0.358235
vn -0.999474 0.031236 -0.008718
vn -0.427618 0.625088 0.652999
vn -0.999474 0.031236 -0.008718
vn -0.982763 -0.040699 0.180333
vn -0.427618 0.625088 0.652999
vn -0.999474 0.031236 -0.008718
vn -0.996955 -0.018982 -0.075637
vn -0.982763 -0.040699 0.180333
vn -0.996955 -0.018982 -0.075637
vn 0.000016 -0.001482 0.999999
vn -0.982763 -0.040699 0.180333
vn 0.973853 -0.191088 -0.122869
vn -0.000001 -0.893990 -0.448086
vn 0.000004 -0.854904 -0.518786
vn 0.996956 -0.019110 -0.075588
vn -0.000006 -0.281620 -0.959526
vn -0.996955 -0.018982 -0.075637
vn -0.000006 -0.281620 -0.959526
vn -0.997096 -0.003292 0.076081
vn -0.996955 -0.018982 -0.075637
vn -0.997096 -0.003292 0.076081
vn 0.000016 -0.001482 0.999999
vn -0.996955 -0.018982 -0.075637
vn 0.000016 -0.001482 0.999999
vn -0.997096 -0.003292 0.076081
vn 0.998695 -0.003085 0.050970
vn -0.997096 -0.003292 0.076081
vn 0.084621 0.411808 0.907333
vn 0.998695 -0.003085 0.050970
vn -0.000006 -0.281620 -0.959526
vn 0.996956 -0.019110 -0.075588
vn 0.998695 -0.003085 0.050970
vn 0.996956 -0.019110 -0.075588
vn 0.000016 -0.001482 0.999999
vn 0.998695 -0.003085 0.050970
vn 0.998834 0.036382 -0.031731
vn 0.982763 -0.040700 0.180336
vn 0.996956 -0.019110 -0.075588
vn 0.982763 -0.040700 0.180336
vn 0.000016 -0.001482 0.999999
vn 0.996956 -0.019110 -0.075588
s off
g cola_default1
usemtl cola_Pikachu_PikachuDh_PikachuDh_png2
f 7/1/1 25/2/2 22/3/3
f 1/4/4 9/5/5 2/6/6
f 3/7/7 16/8/8 14/9/9
f 24/10/10 5/11/11 4/12/12
f 23/13/13 25/2/14 7/1/15
f 5/11/16 8/14/17 4/15/18
f 6/16/19 7/1/20 22/3/21
f 20/17/22 1/4/23 2/6/24
f 17/18/25 4/19/26 18/20/27
f 4/21/28 8/14/29 18/20/30
f 2/6/31 9/5/32 11/22/33
f 9/5/34 12/23/35 11/22/36
f 3/7/37 5/11/38 10/24/39
f 5/11/40 28/25/41 10/24/42
f 11/22/43 12/23/44 6/26/45
f 12/23/46 29/27/47 6/28/48
f 10/24/49 17/29/50 3/7/51
f 17/30/52 16/8/53 3/7/54
f 26/31/55 29/27/56 13/32/57
f 29/27/58 12/23/59 13/33/60
f 9/5/61 1/4/62 20/34/63
f 20/35/64 21/36/65 9/5/66
f 21/37/67 22/3/68 9/5/69
f 3/7/70 18/20/71 5/11/72
f 3/7/73 14/9/74 18/20/75
f 14/9/76 15/38/77 18/20/78
f 17/39/79 19/40/80 16/8/81
f 17/41/82 18/20/83 19/42/84
f 18/20/85 15/38/86 19/43/87
f 24/10/88 28/25/89 5/11/90
f 10/24/91 4/44/92 17/45/93
f 10/24/94 27/46/95 4/47/96
f 27/48/97 24/10/98 4/49/99
f 6/50/100 23/51/101 7/1/102
f 2/6/103 11/22/104 20/52/105
f 11/22/106 21/53/107 20/54/108
f 11/22/109 6/55/110 21/56/111
f 6/57/112 22/3/113 21/58/114
f 9/5/115 22/3/116 12/23/117
f 22/3/118 13/59/119 12/23/120
f 22/3/121 25/2/122 13/60/123
f 25/2/124 26/31/125 13/61/126
f 5/11/127 18/20/128 8/14/129
f 23/62/130 24/10/131 25/63/132
f 24/10/133 27/64/134 25/65/135
f 27/66/136 26/67/137 25/68/138
f 26/67/139 27/69/140 28/25/141
f 27/70/142 10/24/143 28/25/144
f 24/10/145 23/62/146 28/25/147
f 23/62/148 26/67/149 28/25/150
f 6/71/151 29/27/152 23/72/153
f 29/27/154 26/31/155 23/73/156
