# This file uses centimeters as units for non-parametric coordinates.

mtllib pokearriba.mtl
g default
v 0.928494 0.000121 0.631857
v 0.735856 0.000121 0.320736
v 0.443837 0.000121 0.100213
v 0.091875 0.000121 0.000071
v -0.272495 0.000121 0.033835
v -0.600064 0.000121 0.196944
v -0.846590 0.000121 0.467371
v -0.978780 0.000121 0.808592
v -0.978780 0.000121 1.174523
v -0.846590 0.000121 1.515744
v -0.600064 0.000121 1.786170
v -0.272496 0.000121 1.949280
v 0.091875 0.000121 1.983044
v 0.443837 0.000121 1.882902
v 0.735856 0.000121 1.662379
v 0.928494 0.000121 1.351258
v 0.995734 0.000121 0.991557
v 0.896876 0.181516 0.644106
v 0.710798 0.181516 0.343579
v 0.428723 0.181516 0.130566
v 0.088746 0.181516 0.033835
v -0.263216 0.181516 0.066449
v -0.579629 0.181516 0.224004
v -0.817761 0.181516 0.485221
v -0.945449 0.181516 0.814822
v -0.945449 0.181516 1.168292
v -0.817761 0.181516 1.497893
v -0.579629 0.181516 1.759111
v -0.263216 0.181516 1.916666
v 0.088746 0.181516 1.949280
v 0.428723 0.181516 1.852548
v 0.710798 0.181516 1.639535
v 0.896876 0.181516 1.339009
v 0.961826 0.181516 0.991557
v 0.834715 0.353591 0.668187
v 0.661534 0.353591 0.388490
v 0.399009 0.353591 0.190240
v 0.082595 0.353591 0.100213
v -0.244973 0.353591 0.130566
v -0.539456 0.353591 0.277201
v -0.761083 0.353591 0.520314
v -0.879921 0.353591 0.827071
v -0.879921 0.353591 1.156043
v -0.761083 0.353591 1.462800
v -0.539456 0.353591 1.705913
v -0.244973 0.353591 1.852548
v 0.082595 0.353591 1.882902
v 0.399009 0.353591 1.792874
v 0.661534 0.353591 1.594625
v 0.834715 0.353591 1.314927
v 0.895163 0.353591 0.991557
v 0.744129 0.510488 0.703280
v 0.589742 0.510488 0.453937
v 0.355707 0.510488 0.277202
v 0.073632 0.510488 0.196944
v -0.218388 0.510488 0.224004
v -0.480913 0.510488 0.354726
v -0.678488 0.510488 0.571455
v -0.784429 0.510488 0.844922
v -0.784429 0.510488 1.138192
v -0.678488 0.510488 1.411659
v -0.480913 0.510488 1.628389
v -0.218388 0.510488 1.759111
v 0.073632 0.510488 1.786170
v 0.355707 0.510488 1.705913
v 0.589742 0.510488 1.529178
v 0.744129 0.510488 1.279834
v 0.798017 0.510488 0.991557
v 0.628202 0.646862 0.748190
v 0.497867 0.646862 0.537691
v 0.300292 0.646862 0.388490
v 0.062161 0.646862 0.320735
v -0.184365 0.646862 0.343579
v -0.405992 0.646862 0.453936
v -0.572788 0.646862 0.636902
v -0.662225 0.646862 0.867766
v -0.662225 0.646862 1.115348
v -0.572788 0.646862 1.346212
v -0.405992 0.646862 1.529178
v -0.184366 0.646862 1.639535
v 0.062161 0.646862 1.662379
v 0.300292 0.646862 1.594625
v 0.497867 0.646862 1.445423
v 0.628202 0.646862 1.234924
v 0.673696 0.646862 0.991557
v 0.490883 0.758070 0.801388
v 0.389038 0.758070 0.636902
v 0.234651 0.758070 0.520314
v 0.048573 0.758070 0.467371
v -0.144065 0.758070 0.485221
v -0.317246 0.758070 0.571455
v -0.447582 0.758070 0.714426
v -0.517469 0.758070 0.894826
v -0.517469 0.758070 1.088289
v -0.447582 0.758070 1.268688
v -0.317246 0.758070 1.411659
v -0.144065 0.758070 1.497893
v 0.048573 0.758070 1.515744
v 0.234651 0.758070 1.462800
v 0.389038 0.758070 1.346212
v 0.490883 0.758070 1.181726
v 0.526432 0.758070 0.991557
v 0.336848 0.840325 0.861062
v 0.266961 0.840325 0.748190
v 0.161019 0.840325 0.668187
v 0.033331 0.840325 0.631857
v -0.098858 0.840325 0.644106
v -0.217697 0.840325 0.703280
v -0.307134 0.840325 0.801388
v -0.355091 0.840325 0.925179
v -0.355091 0.840325 1.057935
v -0.307134 0.840325 1.181726
v -0.217697 0.840325 1.279834
v -0.098858 0.840325 1.339009
v 0.033331 0.840325 1.351258
v 0.161019 0.840325 1.314927
v 0.266961 0.840325 1.234924
v 0.336848 0.840325 1.122053
v 0.361242 0.840325 0.991557
v 0.171341 0.890826 0.925179
v 0.135793 0.890826 0.867766
v 0.081904 0.890826 0.827071
v 0.016954 0.890826 0.808592
v -0.050285 0.890826 0.814822
v -0.110734 0.890826 0.844922
v -0.156227 0.890826 0.894826
v -0.180621 0.890826 0.957793
v -0.180621 0.890826 1.025321
v -0.156227 0.890826 1.088289
v -0.110734 0.890826 1.138192
v -0.050285 0.890826 1.168292
v 0.016954 0.890826 1.174523
v 0.081904 0.890826 1.156043
v 0.135793 0.890826 1.115348
v 0.171341 0.890826 1.057935
v 0.183750 0.890826 0.991557
v 0.000000 0.907853 0.991557
vt 0.915535 0.524216
vt 1.007716 0.524156
vt 1.007767 0.596425
vt 0.915562 0.596603
vt 1.099701 0.524065
vt 1.099768 0.596157
vt 1.191427 0.523957
vt 1.191501 0.595836
vt 1.282869 0.523846
vt 1.282940 0.595507
vt -0.272964 0.523846
vt -0.181794 0.523747
vt -0.181735 0.595213
vt -0.272893 0.595507
vt -0.090846 0.523673
vt -0.090807 0.594994
vt -0.000044 0.523634
vt -0.000031 0.594877
vt 0.090707 0.523634
vt 0.090694 0.594877
vt 0.181509 0.523673
vt 0.181471 0.594994
vt 0.272457 0.523747
vt 0.272398 0.595213
vt 0.363627 0.523846
vt 0.363556 0.595507
vt 0.455069 0.523957
vt 0.454995 0.595836
vt 0.546795 0.524065
vt 0.546728 0.596157
vt 0.638780 0.524156
vt 0.638729 0.596425
vt 0.730961 0.524216
vt 0.730933 0.596603
vt 0.823248 0.524237
vt 0.823248 0.596666
vt 1.007878 0.668671
vt 0.915622 0.668961
vt 1.099915 0.668234
vt 1.191663 0.667711
vt 1.283095 0.667175
vt -0.181607 0.666697
vt -0.272737 0.667175
vt -0.090723 0.666340
vt -0.000001 0.666150
vt 0.090664 0.666150
vt 0.181386 0.666340
vt 0.272270 0.666697
vt 0.363401 0.667175
vt 0.454833 0.667711
vt 0.546581 0.668234
vt 0.638618 0.668671
vt 0.730874 0.668961
vt 0.823248 0.669063
vt 0.064009 0.909946
vt 0.077833 0.917874
vt 0.072988 0.923650
vt 0.061578 0.917082
vt 0.087860 0.930261
vt 0.081256 0.933897
vt 0.092735 0.945433
vt 0.085264 0.946438
vt 0.091800 0.961342
vt 0.084470 0.959580
vt 0.085181 0.975839
vt 0.078983 0.971548
vt 0.073773 0.986966
vt 0.069543 0.980725
vt 0.059115 0.993220
vt 0.057425 0.985873
vt 0.043188 0.993757
vt 0.044266 0.986296
vt 0.028142 0.988504
vt 0.031843 0.981936
vt 0.016010 0.978171
vt 0.021834 0.973384
vt 0.008430 0.964153
vt 0.015590 0.961792
vt 0.006426 0.948343
vt 0.013955 0.948728
vt 0.010268 0.932877
vt 0.017149 0.935956
vt 0.019438 0.919843
vt 0.024742 0.925200
vt 0.032697 0.911002
vt 0.035707 0.917913
vt 0.048254 0.907547
vt 0.048565 0.915080
vt 0.068252 0.929273
vt 0.059192 0.924036
vt 0.074808 0.937429
vt 0.077975 0.947402
vt 0.077326 0.957846
vt 0.072947 0.967350
vt 0.065431 0.974631
vt 0.055793 0.978705
vt 0.045333 0.979022
vt 0.035466 0.975539
vt 0.027523 0.968727
vt 0.022577 0.959505
vt 0.021296 0.949120
vt 0.023854 0.938973
vt 0.029904 0.930435
vt 0.038630 0.924660
vt 0.048853 0.922426
vt 0.063583 0.934780
vt 0.056828 0.930858
vt 0.068465 0.940877
vt 0.070815 0.948327
vt 0.070315 0.956122
vt 0.067033 0.963210
vt 0.061412 0.968633
vt 0.054211 0.971660
vt 0.046403 0.971882
vt 0.039043 0.969268
vt 0.033124 0.964171
vt 0.029445 0.957281
vt 0.028504 0.949526
vt 0.030428 0.941956
vt 0.034957 0.935592
vt 0.041479 0.931293
vt 0.049113 0.929641
vt 0.058953 0.940200
vt 0.054469 0.937585
vt 0.062190 0.944259
vt 0.063742 0.949213
vt 0.063399 0.954393
vt 0.061209 0.959100
vt 0.057466 0.962697
vt 0.052676 0.964699
vt 0.047486 0.964836
vt 0.042598 0.963089
vt 0.038671 0.959694
vt 0.036235 0.955110
vt 0.035620 0.949955
vt 0.036908 0.944926
vt 0.039927 0.940702
vt 0.044267 0.937854
vt 0.049343 0.936766
vt 0.054338 0.945559
vt 0.052101 0.944249
vt 0.055950 0.947589
vt 0.056721 0.950064
vt 0.056545 0.952650
vt 0.055447 0.954998
vt 0.053575 0.956791
vt 0.051181 0.957787
vt 0.048590 0.957850
vt 0.046150 0.956973
vt 0.044192 0.955275
vt 0.042980 0.952983
vt 0.042678 0.950409
vt 0.043326 0.947899
vt 0.044837 0.945792
vt 0.047006 0.944374
vt 0.049542 0.943835
vt 0.049715 0.950887
vn 0.916595 0.183749 -0.355091
vn 0.726426 0.183749 -0.662225
vn 0.711884 0.268441 -0.648968
vn 0.898247 0.268441 -0.347983
vn 0.438149 0.183749 -0.879921
vn 0.429378 0.268441 -0.862307
vn 0.090697 0.183749 -0.978780
vn 0.088882 0.268441 -0.959187
vn -0.269003 0.183749 -0.945449
vn -0.263618 0.268441 -0.926523
vn -0.592374 0.183749 -0.784430
vn -0.580516 0.268441 -0.768727
vn -0.835741 0.183750 -0.517469
vn -0.819011 0.268441 -0.507110
vn -0.966236 0.183750 -0.180621
vn -0.946894 0.268441 -0.177005
vn -0.966236 0.183749 0.180621
vn -0.946894 0.268441 0.177005
vn -0.835741 0.183749 0.517469
vn -0.819011 0.268441 0.507110
vn -0.592374 0.183749 0.784430
vn -0.580516 0.268441 0.768727
vn -0.269003 0.183749 0.945449
vn -0.263618 0.268441 0.926523
vn 0.090697 0.183749 0.978780
vn 0.088882 0.268441 0.959187
vn 0.438149 0.183749 0.879922
vn 0.429378 0.268441 0.862307
vn 0.726426 0.183749 0.662225
vn 0.711884 0.268441 0.648969
vn 0.916595 0.183749 0.355091
vn 0.898247 0.268441 0.347983
vn 0.982973 0.183749 -0.000000
vn 0.963296 0.268441 -0.000000
vn 0.664509 0.437559 -0.605780
vn 0.838470 0.437559 -0.324825
vn 0.400803 0.437559 -0.804922
vn 0.082967 0.437559 -0.895354
vn -0.246075 0.437558 -0.864864
vn -0.541883 0.437558 -0.717569
vn -0.764507 0.437558 -0.473363
vn -0.883880 0.437559 -0.165226
vn -0.883880 0.437559 0.165226
vn -0.764507 0.437558 0.473363
vn -0.541883 0.437558 0.717569
vn -0.246075 0.437558 0.864864
vn 0.082967 0.437559 0.895354
vn 0.400803 0.437559 0.804922
vn 0.664509 0.437559 0.605780
vn 0.838470 0.437559 0.324825
vn 0.899190 0.437559 -0.000000
vn 0.595479 0.592214 -0.542851
vn 0.751368 0.592214 -0.291082
vn 0.359167 0.592214 -0.721305
vn 0.074348 0.592214 -0.802343
vn -0.220512 0.592214 -0.775020
vn -0.485591 0.592214 -0.643027
vn -0.685088 0.592214 -0.424189
vn -0.792061 0.592214 -0.148062
vn -0.792061 0.592214 0.148062
vn -0.685088 0.592214 0.424189
vn -0.485591 0.592214 0.643027
vn -0.220512 0.592214 0.775020
vn 0.074348 0.592214 0.802343
vn 0.359167 0.592214 0.721305
vn 0.595479 0.592214 0.542851
vn 0.751368 0.592214 0.291081
vn 0.805780 0.592214 -0.000000
vn 0.507253 0.727227 -0.462423
vn 0.640046 0.727227 -0.247955
vn 0.305954 0.727227 -0.614437
vn 0.063333 0.727227 -0.683469
vn -0.187841 0.727227 -0.660194
vn -0.413647 0.727227 -0.547757
vn -0.583586 0.727227 -0.361341
vn -0.674710 0.727227 -0.126125
vn -0.674710 0.727227 0.126125
vn -0.583586 0.727227 0.361341
vn -0.413647 0.727227 0.547756
vn -0.187842 0.727227 0.660194
vn 0.063333 0.727227 0.683469
vn 0.305953 0.727227 0.614437
vn 0.507253 0.727227 0.462423
vn 0.640046 0.727227 0.247955
vn 0.686397 0.727227 -0.000000
vn 0.403255 0.838000 -0.367616
vn 0.508823 0.838000 -0.197119
vn 0.243226 0.838000 -0.488465
vn 0.050348 0.838000 -0.543343
vn -0.149330 0.838000 -0.524840
vn -0.328840 0.838000 -0.435455
vn -0.463939 0.838000 -0.287259
vn -0.536380 0.838000 -0.100267
vn -0.536380 0.838000 0.100267
vn -0.463939 0.838000 0.287259
vn -0.328840 0.838000 0.435455
vn -0.149330 0.838000 0.524840
vn 0.050348 0.838000 0.543343
vn 0.243226 0.838000 0.488464
vn 0.403256 0.838000 0.367616
vn 0.508823 0.838000 0.197119
vn 0.545671 0.838000 0.000000
vn 0.288520 0.920639 -0.263021
vn 0.364051 0.920639 -0.141034
vn 0.174023 0.920639 -0.349485
vn 0.036023 0.920639 -0.388749
vn -0.106842 0.920639 -0.375511
vn -0.235278 0.920639 -0.311558
vn -0.331937 0.920639 -0.205527
vn -0.383767 0.920639 -0.071739
vn -0.383767 0.920639 0.071739
vn -0.331937 0.920639 0.205527
vn -0.235278 0.920639 0.311558
vn -0.106842 0.920639 0.375511
vn 0.036023 0.920639 0.388749
vn 0.174023 0.920639 0.349485
vn 0.288520 0.920639 0.263021
vn 0.364051 0.920639 0.141034
vn 0.390415 0.920639 0.000000
vn 0.174450 0.971739 -0.159033
vn 0.220119 0.971739 -0.085275
vn 0.105221 0.971739 -0.211312
vn 0.021781 0.971739 -0.235053
vn -0.064601 0.971739 -0.227048
vn -0.142258 0.971739 -0.188380
vn -0.200702 0.971739 -0.124269
vn -0.232040 0.971739 -0.043376
vn -0.232040 0.971739 0.043376
vn -0.200702 0.971739 0.124270
vn -0.142258 0.971739 0.188380
vn -0.064601 0.971739 0.227048
vn 0.021781 0.971739 0.235053
vn 0.105221 0.971739 0.211312
vn 0.174450 0.971739 0.159033
vn 0.220119 0.971739 0.085275
vn 0.236060 0.971739 0.000000
vn 0.000000 1.000000 0.000000
s 1
g polySurface2 pSphere1
usemtl lambert2SG
f 1/1/1 2/2/2 19/3/3 18/4/4
f 2/2/2 3/5/5 20/6/6 19/3/3
f 3/5/5 4/7/7 21/8/8 20/6/6
f 4/7/7 5/9/9 22/10/10 21/8/8
f 5/11/9 6/12/11 23/13/12 22/14/10
f 6/12/11 7/15/13 24/16/14 23/13/12
f 7/15/13 8/17/15 25/18/16 24/16/14
f 8/17/15 9/19/17 26/20/18 25/18/16
f 9/19/17 10/21/19 27/22/20 26/20/18
f 10/21/19 11/23/21 28/24/22 27/22/20
f 11/23/21 12/25/23 29/26/24 28/24/22
f 12/25/23 13/27/25 30/28/26 29/26/24
f 13/27/25 14/29/27 31/30/28 30/28/26
f 14/29/27 15/31/29 32/32/30 31/30/28
f 15/31/29 16/33/31 33/34/32 32/32/30
f 16/33/31 17/35/33 34/36/34 33/34/32
f 17/35/33 1/1/1 18/4/4 34/36/34
f 18/4/4 19/3/3 36/37/35 35/38/36
f 19/3/3 20/6/6 37/39/37 36/37/35
f 20/6/6 21/8/8 38/40/38 37/39/37
f 21/8/8 22/10/10 39/41/39 38/40/38
f 22/14/10 23/13/12 40/42/40 39/43/39
f 23/13/12 24/16/14 41/44/41 40/42/40
f 24/16/14 25/18/16 42/45/42 41/44/41
f 25/18/16 26/20/18 43/46/43 42/45/42
f 26/20/18 27/22/20 44/47/44 43/46/43
f 27/22/20 28/24/22 45/48/45 44/47/44
f 28/24/22 29/26/24 46/49/46 45/48/45
f 29/26/24 30/28/26 47/50/47 46/49/46
f 30/28/26 31/30/28 48/51/48 47/50/47
f 31/30/28 32/32/30 49/52/49 48/51/48
f 32/32/30 33/34/32 50/53/50 49/52/49
f 33/34/32 34/36/34 51/54/51 50/53/50
f 34/36/34 18/4/4 35/38/36 51/54/51
f 35/55/36 36/56/35 53/57/52 52/58/53
f 36/56/35 37/59/37 54/60/54 53/57/52
f 37/59/37 38/61/38 55/62/55 54/60/54
f 38/61/38 39/63/39 56/64/56 55/62/55
f 39/63/39 40/65/40 57/66/57 56/64/56
f 40/65/40 41/67/41 58/68/58 57/66/57
f 41/67/41 42/69/42 59/70/59 58/68/58
f 42/69/42 43/71/43 60/72/60 59/70/59
f 43/71/43 44/73/44 61/74/61 60/72/60
f 44/73/44 45/75/45 62/76/62 61/74/61
f 45/75/45 46/77/46 63/78/63 62/76/62
f 46/77/46 47/79/47 64/80/64 63/78/63
f 47/79/47 48/81/48 65/82/65 64/80/64
f 48/81/48 49/83/49 66/84/66 65/82/65
f 49/83/49 50/85/50 67/86/67 66/84/66
f 50/85/50 51/87/51 68/88/68 67/86/67
f 51/87/51 35/55/36 52/58/53 68/88/68
f 52/58/53 53/57/52 70/89/69 69/90/70
f 53/57/52 54/60/54 71/91/71 70/89/69
f 54/60/54 55/62/55 72/92/72 71/91/71
f 55/62/55 56/64/56 73/93/73 72/92/72
f 56/64/56 57/66/57 74/94/74 73/93/73
f 57/66/57 58/68/58 75/95/75 74/94/74
f 58/68/58 59/70/59 76/96/76 75/95/75
f 59/70/59 60/72/60 77/97/77 76/96/76
f 60/72/60 61/74/61 78/98/78 77/97/77
f 61/74/61 62/76/62 79/99/79 78/98/78
f 62/76/62 63/78/63 80/100/80 79/99/79
f 63/78/63 64/80/64 81/101/81 80/100/80
f 64/80/64 65/82/65 82/102/82 81/101/81
f 65/82/65 66/84/66 83/103/83 82/102/82
f 66/84/66 67/86/67 84/104/84 83/103/83
f 67/86/67 68/88/68 85/105/85 84/104/84
f 68/88/68 52/58/53 69/90/70 85/105/85
f 69/90/70 70/89/69 87/106/86 86/107/87
f 70/89/69 71/91/71 88/108/88 87/106/86
f 71/91/71 72/92/72 89/109/89 88/108/88
f 72/92/72 73/93/73 90/110/90 89/109/89
f 73/93/73 74/94/74 91/111/91 90/110/90
f 74/94/74 75/95/75 92/112/92 91/111/91
f 75/95/75 76/96/76 93/113/93 92/112/92
f 76/96/76 77/97/77 94/114/94 93/113/93
f 77/97/77 78/98/78 95/115/95 94/114/94
f 78/98/78 79/99/79 96/116/96 95/115/95
f 79/99/79 80/100/80 97/117/97 96/116/96
f 80/100/80 81/101/81 98/118/98 97/117/97
f 81/101/81 82/102/82 99/119/99 98/118/98
f 82/102/82 83/103/83 100/120/100 99/119/99
f 83/103/83 84/104/84 101/121/101 100/120/100
f 84/104/84 85/105/85 102/122/102 101/121/101
f 85/105/85 69/90/70 86/107/87 102/122/102
f 86/107/87 87/106/86 104/123/103 103/124/104
f 87/106/86 88/108/88 105/125/105 104/123/103
f 88/108/88 89/109/89 106/126/106 105/125/105
f 89/109/89 90/110/90 107/127/107 106/126/106
f 90/110/90 91/111/91 108/128/108 107/127/107
f 91/111/91 92/112/92 109/129/109 108/128/108
f 92/112/92 93/113/93 110/130/110 109/129/109
f 93/113/93 94/114/94 111/131/111 110/130/110
f 94/114/94 95/115/95 112/132/112 111/131/111
f 95/115/95 96/116/96 113/133/113 112/132/112
f 96/116/96 97/117/97 114/134/114 113/133/113
f 97/117/97 98/118/98 115/135/115 114/134/114
f 98/118/98 99/119/99 116/136/116 115/135/115
f 99/119/99 100/120/100 117/137/117 116/136/116
f 100/120/100 101/121/101 118/138/118 117/137/117
f 101/121/101 102/122/102 119/139/119 118/138/118
f 102/122/102 86/107/87 103/124/104 119/139/119
f 103/124/104 104/123/103 121/140/120 120/141/121
f 104/123/103 105/125/105 122/142/122 121/140/120
f 105/125/105 106/126/106 123/143/123 122/142/122
f 106/126/106 107/127/107 124/144/124 123/143/123
f 107/127/107 108/128/108 125/145/125 124/144/124
f 108/128/108 109/129/109 126/146/126 125/145/125
f 109/129/109 110/130/110 127/147/127 126/146/126
f 110/130/110 111/131/111 128/148/128 127/147/127
f 111/131/111 112/132/112 129/149/129 128/148/128
f 112/132/112 113/133/113 130/150/130 129/149/129
f 113/133/113 114/134/114 131/151/131 130/150/130
f 114/134/114 115/135/115 132/152/132 131/151/131
f 115/135/115 116/136/116 133/153/133 132/152/132
f 116/136/116 117/137/117 134/154/134 133/153/133
f 117/137/117 118/138/118 135/155/135 134/154/134
f 118/138/118 119/139/119 136/156/136 135/155/135
f 119/139/119 103/124/104 120/141/121 136/156/136
f 120/141/121 121/140/120 137/157/137
f 121/140/120 122/142/122 137/157/137
f 122/142/122 123/143/123 137/157/137
f 123/143/123 124/144/124 137/157/137
f 124/144/124 125/145/125 137/157/137
f 125/145/125 126/146/126 137/157/137
f 126/146/126 127/147/127 137/157/137
f 127/147/127 128/148/128 137/157/137
f 128/148/128 129/149/129 137/157/137
f 129/149/129 130/150/130 137/157/137
f 130/150/130 131/151/131 137/157/137
f 131/151/131 132/152/132 137/157/137
f 132/152/132 133/153/133 137/157/137
f 133/153/133 134/154/134 137/157/137
f 134/154/134 135/155/135 137/157/137
f 135/155/135 136/156/136 137/157/137
f 136/156/136 120/141/121 137/157/137
