# This file uses centimeters as units for non-parametric coordinates.

mtllib brazoDer.mtl
g default
v -0.420555 0.296451 0.448146
v -0.342474 0.358338 0.375366
v -0.388710 0.344876 0.434629
v -0.326178 0.349653 0.425220
v -0.396141 0.297624 0.447358
v -0.360031 0.358559 0.418923
v -0.344137 0.323229 0.430057
v -0.367815 0.342561 0.451138
v -0.411112 0.251077 0.434986
v -0.412720 0.277341 0.442238
v -0.431131 0.260814 0.443517
v -0.432011 0.250055 0.428189
v -0.411839 0.231868 0.379576
v -0.344246 0.258194 0.400229
v -0.415871 0.320119 0.434860
v -0.402237 0.325539 0.451246
v -0.381977 0.320093 0.449247
v -0.195826 0.199553 0.292734
v -0.326906 0.325309 0.257933
v -0.263964 0.335737 0.237230
v -0.201180 0.301362 0.283557
v -0.314297 0.312214 0.187923
v -0.324427 0.175405 0.186087
v -0.234304 0.151477 0.286245
v -0.330786 0.244030 0.176610
v -0.286480 0.123504 0.245259
v -0.210911 0.312532 0.246188
v -0.176941 0.260095 0.287283
v -0.238272 0.273023 0.347199
v -0.268246 0.281833 0.365942
v -0.271833 0.219127 0.344313
v -0.298197 0.228750 0.363688
v -0.370699 0.344047 0.365211
v -0.268587 0.327225 0.358459
v -0.244707 0.320385 0.331537
v -0.334255 0.192189 0.360425
v -0.379013 0.224715 0.397234
v -0.376549 0.281744 0.435709
v -0.318691 0.345028 0.393264
v -0.318222 0.303917 0.403511
v -0.430666 0.284476 0.429083
v -0.399734 0.316886 0.359364
v -0.388357 0.236851 0.297484
v -0.306036 0.347468 0.315165
v -0.285040 0.343330 0.286999
v -0.358164 0.273566 0.246561
v -0.342815 0.332778 0.292573
v -0.380743 0.193592 0.333088
v -0.310112 0.179858 0.340360
v -0.364161 0.178231 0.307353
v -0.374016 0.223290 0.265283
v -0.370941 0.289967 0.284378
v -0.417778 0.273168 0.367047
v -0.262104 0.326922 0.204566
v -0.218456 0.121826 0.251762
v -0.180859 0.166850 0.265007
v -0.277107 0.094755 0.187902
v -0.307787 0.149198 0.130672
v -0.317017 0.231841 0.109849
v -0.300598 0.314340 0.133847
v -0.260715 0.355148 0.189373
v -0.211756 0.344822 0.231680
v -0.166088 0.293598 0.271941
v -0.162420 0.226346 0.278900
vt 0.171051 0.808655
vt 0.148773 0.815948
vt 0.163208 0.825592
vt 0.151581 0.786957
vt 0.135315 0.800140
vt 0.150513 0.800537
vt 0.180389 0.908661
vt 0.177490 0.869446
vt 0.174500 0.892059
vt 0.156982 0.876892
vt 0.174500 0.892059
vt 0.137482 0.880951
vt 0.114716 0.880737
vt 0.148041 0.900787
vt 0.138489 0.912018
vt 0.148041 0.900787
vt 0.171051 0.808655
vt 0.180176 0.839203
vt 0.147736 0.838165
vt 0.180176 0.839203
vt 0.148773 0.815948
vt 0.147736 0.838165
vt 0.148773 0.815948
vt 0.130920 0.838226
vt 0.147736 0.838165
vt 0.180389 0.908661
vt 0.174500 0.892059
vt 0.148041 0.900787
vt 0.174500 0.892059
vt 0.148041 0.900787
vt 0.174500 0.892059
vt 0.151154 0.859924
vt 0.151154 0.859924
vt 0.166718 0.852051
vt 0.151154 0.859924
vt 0.130920 0.838226
vt 0.148773 0.815948
vt 0.135315 0.800140
vt 0.148773 0.815948
vt 0.150513 0.800537
vt 0.135315 0.800140
vt 0.148773 0.815948
vt 0.171051 0.808655
vt 0.150513 0.800537
vt 0.171051 0.808655
vt 0.151581 0.786957
vt 0.150513 0.800537
vt 0.171051 0.808655
vt 0.152130 0.780029
vt 0.151581 0.786957
vt 0.135315 0.800140
vt 0.151581 0.786957
vt 0.116333 0.792725
vt 0.135315 0.800140
vt 0.106598 0.836273
vt 0.135315 0.800140
vt 0.202240 0.873138
vt 0.180176 0.839203
vt 0.180176 0.839203
vt 0.166718 0.852051
vt 0.180176 0.839203
vt 0.147736 0.838165
vt 0.166718 0.852051
vt 0.147736 0.838165
vt 0.151154 0.859924
vt 0.166718 0.852051
vt 0.147736 0.838165
vt 0.130920 0.838226
vt 0.151154 0.859924
vt 0.130920 0.838226
vt 0.151154 0.859924
vt 0.130920 0.838226
vt 0.057892 0.747620
vt 0.038147 0.722046
vt 0.003265 0.822052
vt 0.030304 0.828278
vt 0.003265 0.822052
vt 0.006104 0.905579
vt 0.017761 0.946472
vt 0.035645 0.910706
vt 0.006104 0.905579
vt 0.502625 0.629364
vt 0.498932 0.639252
vt 0.550110 0.643250
vt 0.281708 0.903809
vt 0.253906 0.830170
vt 0.247498 0.886841
vt 0.211700 0.963348
vt 0.196014 0.941895
vt 0.098511 0.973755
vt 0.119904 0.946198
vt 0.063568 0.897797
vt 0.222046 0.989471
vt 0.314606 0.920990
vt 0.313446 0.812500
vt 0.314606 0.920990
vt 0.275330 0.724640
vt 0.244934 0.747192
vt 0.287354 0.821350
vt 0.313446 0.812500
vt 0.221375 0.771942
vt 0.152130 0.739197
vt 0.153961 0.712433
vt 0.275330 0.724640
vt 0.152985 0.677917
vt 0.078522 0.769958
vt 0.038147 0.722046
vt 0.059753 0.833038
vt 0.091125 0.996460
vt 0.017761 0.946472
vt 0.091125 0.996460
vt 0.460419 0.618591
vt 0.498932 0.639252
vt 0.079468 0.891815
vt 0.072449 0.834229
vt 0.202240 0.873138
vt 0.180389 0.908661
vt 0.189667 0.930176
vt 0.202240 0.873138
vt 0.180389 0.908661
vt 0.189667 0.930176
vt 0.180389 0.908661
vt 0.126190 0.932709
vt 0.189667 0.930176
vt 0.126190 0.932709
vt 0.126190 0.932709
vt 0.088257 0.776306
vt 0.130920 0.838226
vt 0.135315 0.800140
vt 0.180389 0.908661
vt 0.148041 0.900787
vt 0.138489 0.912018
vt 0.126190 0.932709
vt 0.180389 0.908661
vt 0.138489 0.912018
vt 0.126190 0.932709
vt 0.138489 0.912018
vt 0.126190 0.932709
vt 0.171051 0.808655
vt 0.180176 0.839203
vt 0.206024 0.837006
vt 0.189087 0.796967
vt 0.171051 0.808655
vt 0.206024 0.837006
vt 0.189087 0.796967
vt 0.206024 0.837006
vt 0.238007 0.833618
vt 0.213837 0.779755
vt 0.189087 0.796967
vt 0.238007 0.833618
vt 0.238007 0.833618
vt 0.189667 0.930176
vt 0.233978 0.883881
vt 0.189667 0.930176
vt 0.233978 0.883881
vt 0.233978 0.883881
vt 0.152130 0.750366
vt 0.152130 0.750366
vt 0.152130 0.750366
vt 0.206024 0.837006
vt 0.180176 0.839203
vt 0.202240 0.873138
vt 0.233978 0.883881
vt 0.206024 0.837006
vt 0.202240 0.873138
vt 0.233978 0.883881
vt 0.202240 0.873138
vt 0.189667 0.930176
vt 0.152130 0.750366
vt 0.152130 0.750366
vt 0.152130 0.750366
vt 0.233978 0.883881
vt 0.238007 0.833618
vt 0.206024 0.837006
vt 0.233978 0.883881
vt 0.238007 0.833618
vt 0.171051 0.808655
vt 0.189087 0.796967
vt 0.189087 0.796967
vt 0.091125 0.996460
vt 0.550110 0.643250
vt 0.551331 0.633728
vt 0.550110 0.643250
vt 0.601776 0.620361
vt 0.551331 0.633728
vn -0.967319 0.218285 -0.129016
vn 0.006029 -0.208340 0.978038
vn -0.544911 0.173780 0.820288
vn -0.885476 -0.451487 -0.109965
vn 0.179456 -0.691204 0.700023
vn -0.581542 -0.136437 0.801993
vn -0.005432 0.995035 -0.099381
vn -0.574328 0.817497 0.042979
vn -0.027993 0.975093 0.220021
vn -0.574328 0.817497 0.042979
vn 0.330698 0.414102 0.848032
vn -0.027993 0.975093 0.220021
vn 0.538203 -0.172409 0.824992
vn 0.588182 -0.160852 0.792571
vn 0.590204 0.519517 0.617868
vn 0.588182 -0.160852 0.792571
vn 0.692081 0.607607 0.389664
vn 0.590204 0.519517 0.617868
vn -0.967319 0.218285 -0.129016
vn -0.544911 0.173780 0.820288
vn -0.823946 0.564975 -0.043773
vn -0.544911 0.173780 0.820288
vn 0.092350 -0.193275 0.976789
vn -0.823946 0.564975 -0.043773
vn -0.544911 0.173780 0.820288
vn 0.006029 -0.208340 0.978038
vn 0.092350 -0.193275 0.976789
vn 0.006029 -0.208340 0.978038
vn 0.463952 -0.390144 0.795322
vn 0.092350 -0.193275 0.976789
vn -0.005432 0.995035 -0.099381
vn -0.027993 0.975093 0.220021
vn 0.590204 0.519517 0.617868
vn -0.027993 0.975093 0.220021
vn 0.538203 -0.172409 0.824992
vn 0.590204 0.519517 0.617868
vn -0.027993 0.975093 0.220021
vn 0.330698 0.414102 0.848032
vn 0.538203 -0.172409 0.824992
vn 0.330698 0.414102 0.848032
vn 0.285489 -0.112248 0.951786
vn 0.538203 -0.172409 0.824992
vn 0.330698 0.414102 0.848032
vn -0.574328 0.817497 0.042979
vn 0.285489 -0.112248 0.951786
vn -0.574328 0.817497 0.042979
vn -0.433369 0.338124 0.835382
vn 0.285489 -0.112248 0.951786
vn 0.463952 -0.390144 0.795322
vn 0.006029 -0.208340 0.978038
vn 0.179456 -0.691204 0.700023
vn 0.006029 -0.208340 0.978038
vn -0.581542 -0.136437 0.801993
vn 0.179456 -0.691204 0.700023
vn 0.006029 -0.208340 0.978038
vn -0.967319 0.218285 -0.129016
vn -0.581542 -0.136437 0.801993
vn -0.967319 0.218285 -0.129016
vn -0.885476 -0.451487 -0.109965
vn -0.581542 -0.136437 0.801993
vn -0.967319 0.218285 -0.129016
vn -0.823885 -0.566503 -0.016976
vn -0.885476 -0.451487 -0.109965
vn -0.823885 -0.566503 -0.016976
vn 0.179456 -0.691204 0.700023
vn -0.885476 -0.451487 -0.109965
vn -0.823885 -0.566503 -0.016976
vn 0.066002 -0.749952 0.658192
vn 0.179456 -0.691204 0.700023
vn 0.066002 -0.749952 0.658192
vn 0.445683 -0.403610 0.799040
vn 0.179456 -0.691204 0.700023
vn -0.507718 0.824951 -0.248351
vn -0.823946 0.564975 -0.043773
vn -0.574328 0.817497 0.042979
vn -0.823946 0.564975 -0.043773
vn -0.433369 0.338124 0.835382
vn -0.574328 0.817497 0.042979
vn -0.823946 0.564975 -0.043773
vn 0.092350 -0.193275 0.976789
vn -0.433369 0.338124 0.835382
vn 0.092350 -0.193275 0.976789
vn 0.285489 -0.112248 0.951786
vn -0.433369 0.338124 0.835382
vn 0.092350 -0.193275 0.976789
vn 0.463952 -0.390144 0.795322
vn 0.285489 -0.112248 0.951786
vn 0.463952 -0.390144 0.795322
vn 0.538203 -0.172409 0.824992
vn 0.285489 -0.112248 0.951786
vn 0.463952 -0.390144 0.795322
vn 0.445683 -0.403610 0.799040
vn 0.538203 -0.172409 0.824992
vn 0.445683 -0.403610 0.799040
vn 0.588182 -0.160852 0.792571
vn 0.538203 -0.172409 0.824992
vn 0.237434 -0.679244 0.694444
vn 0.076614 -0.789030 0.609559
vn 0.475512 -0.470860 0.743088
vn 0.503221 -0.278186 0.818157
vn 0.237434 -0.679244 0.694444
vn 0.475512 -0.470860 0.743088
vn 0.508989 -0.129256 0.851013
vn 0.317442 0.540426 0.779211
vn 0.612421 0.045092 0.789245
vn 0.503221 -0.278186 0.818157
vn 0.508989 -0.129256 0.851013
vn 0.612421 0.045092 0.789245
vn -0.008343 0.825501 0.564339
vn -0.534254 0.334781 0.776205
vn -0.755029 0.327528 0.568029
vn -0.718653 0.639777 -0.272441
vn -0.864998 0.302551 -0.400301
vn -0.522405 0.796327 -0.304886
vn 0.145125 0.981771 -0.122736
vn -0.718653 0.639777 -0.272441
vn -0.522405 0.796327 -0.304886
vn 0.145125 0.981771 -0.122736
vn -0.522405 0.796327 -0.304886
vn 0.207378 0.977058 -0.048501
vn 0.568808 0.722961 0.392154
vn 0.145125 0.981771 -0.122736
vn 0.207378 0.977058 -0.048501
vn 0.568808 0.722961 0.392154
vn 0.207378 0.977058 -0.048501
vn 0.620092 0.706342 0.341418
vn 0.651944 -0.108240 0.750502
vn 0.568808 0.722961 0.392154
vn 0.620092 0.706342 0.341418
vn -0.718653 0.639777 -0.272441
vn -0.445963 0.858275 0.253930
vn -0.883414 0.445113 -0.146471
vn -0.975715 0.029387 -0.217062
vn -0.718653 0.639777 -0.272441
vn -0.883414 0.445113 -0.146471
vn -0.975715 0.029387 -0.217062
vn -0.933437 -0.347906 -0.087501
vn -0.874448 -0.435589 -0.213549
vn -0.935868 0.070032 -0.345321
vn -0.975715 0.029387 -0.217062
vn -0.874448 -0.435589 -0.213549
vn -0.935868 0.070032 -0.345321
vn -0.874448 -0.435589 -0.213549
vn -0.905254 -0.223903 -0.361085
vn -0.864998 0.302551 -0.400301
vn -0.935868 0.070032 -0.345321
vn -0.905254 -0.223903 -0.361085
vn -0.623240 -0.780675 0.046028
vn -0.905254 -0.223903 -0.361085
vn -0.874448 -0.435589 -0.213549
vn -0.460201 -0.861622 0.214063
vn -0.623240 -0.780675 0.046028
vn -0.874448 -0.435589 -0.213549
vn -0.460201 -0.861622 0.214063
vn -0.874448 -0.435589 -0.213549
vn -0.933437 -0.347906 -0.087501
vn -0.749946 -0.632298 0.194373
vn -0.460201 -0.861622 0.214063
vn -0.933437 -0.347906 -0.087501
vn 0.055798 -0.776403 0.627762
vn -0.623240 -0.780675 0.046028
vn -0.460201 -0.861622 0.214063
vn 0.237434 -0.679244 0.694444
vn 0.055798 -0.776403 0.627762
vn -0.460201 -0.861622 0.214063
vn 0.237434 -0.679244 0.694444
vn -0.460201 -0.861622 0.214063
vn 0.076614 -0.789030 0.609559
vn 0.503221 -0.278186 0.818157
vn 0.612421 0.045092 0.789245
vn 0.472875 -0.380312 0.794828
vn 0.237434 -0.679244 0.694444
vn 0.503221 -0.278186 0.818157
vn 0.472875 -0.380312 0.794828
vn 0.237434 -0.679244 0.694444
vn 0.472875 -0.380312 0.794828
vn 0.055798 -0.776403 0.627762
vn -0.718653 0.639777 -0.272441
vn -0.975715 0.029387 -0.217062
vn -0.935868 0.070032 -0.345321
vn -0.864998 0.302551 -0.400301
vn -0.718653 0.639777 -0.272441
vn -0.935868 0.070032 -0.345321
vn 0.612421 0.045092 0.789245
vn 0.568808 0.722961 0.392154
vn 0.651944 -0.108240 0.750502
vn 0.472875 -0.380312 0.794828
vn 0.612421 0.045092 0.789245
vn 0.651944 -0.108240 0.750502
vn 0.076614 -0.789030 0.609559
vn -0.460201 -0.861622 0.214063
vn -0.749946 -0.632298 0.194373
vn -0.008343 0.825501 0.564339
vn 0.145125 0.981771 -0.122736
vn 0.568808 0.722961 0.392154
vn 0.317442 0.540426 0.779211
vn -0.008343 0.825501 0.564339
vn 0.568808 0.722961 0.392154
vn 0.317442 0.540426 0.779211
vn 0.568808 0.722961 0.392154
vn 0.612421 0.045092 0.789245
vn -0.008343 0.825501 0.564339
vn 0.317442 0.540426 0.779211
vn -0.534254 0.334781 0.776205
vn 0.472875 -0.380312 0.794828
vn 0.651944 -0.108240 0.750502
vn 0.558774 -0.110820 0.821883
vn 0.433932 -0.380354 0.816721
vn 0.472875 -0.380312 0.794828
vn 0.558774 -0.110820 0.821883
vn 0.433932 -0.380354 0.816721
vn 0.558774 -0.110820 0.821883
vn 0.588182 -0.160852 0.792571
vn 0.445683 -0.403610 0.799040
vn 0.433932 -0.380354 0.816721
vn 0.588182 -0.160852 0.792571
vn -0.507718 0.824951 -0.248351
vn -0.574328 0.817497 0.042979
vn -0.005432 0.995035 -0.099381
vn 0.116417 0.990630 -0.071409
vn -0.507718 0.824951 -0.248351
vn -0.005432 0.995035 -0.099381
vn 0.116417 0.990630 -0.071409
vn -0.005432 0.995035 -0.099381
vn 0.614877 0.638917 0.462290
vn 0.620092 0.706342 0.341418
vn 0.116417 0.990630 -0.071409
vn 0.614877 0.638917 0.462290
vn 0.620092 0.706342 0.341418
vn 0.614877 0.638917 0.462290
vn 0.558774 -0.110820 0.821883
vn 0.651944 -0.108240 0.750502
vn 0.620092 0.706342 0.341418
vn 0.558774 -0.110820 0.821883
vn 0.055798 -0.776403 0.627762
vn 0.472875 -0.380312 0.794828
vn 0.433932 -0.380354 0.816721
vn 0.070518 -0.734411 0.675032
vn 0.055798 -0.776403 0.627762
vn 0.433932 -0.380354 0.816721
vn 0.070518 -0.734411 0.675032
vn 0.433932 -0.380354 0.816721
vn 0.445683 -0.403610 0.799040
vn 0.066002 -0.749952 0.658192
vn 0.070518 -0.734411 0.675032
vn 0.445683 -0.403610 0.799040
vn 0.463952 -0.390144 0.795322
vn 0.179456 -0.691204 0.700023
vn 0.445683 -0.403610 0.799040
vn -0.005432 0.995035 -0.099381
vn 0.590204 0.519517 0.617868
vn 0.692081 0.607607 0.389664
vn 0.614877 0.638917 0.462290
vn -0.005432 0.995035 -0.099381
vn 0.692081 0.607607 0.389664
vn 0.614877 0.638917 0.462290
vn 0.692081 0.607607 0.389664
vn 0.588182 -0.160852 0.792571
vn 0.558774 -0.110820 0.821883
vn 0.614877 0.638917 0.462290
vn 0.588182 -0.160852 0.792571
vn -0.967319 0.218285 -0.129016
vn -0.823946 0.564975 -0.043773
vn -0.787195 0.518061 -0.334570
vn -0.944983 0.075983 -0.318174
vn -0.967319 0.218285 -0.129016
vn -0.787195 0.518061 -0.334570
vn -0.944983 0.075983 -0.318174
vn -0.787195 0.518061 -0.334570
vn -0.807843 0.373088 -0.456285
vn -0.923679 -0.069963 -0.376726
vn -0.944983 0.075983 -0.318174
vn -0.807843 0.373088 -0.456285
vn -0.923679 -0.069963 -0.376726
vn -0.807843 0.373088 -0.456285
vn -0.864998 0.302551 -0.400301
vn -0.905254 -0.223903 -0.361085
vn -0.923679 -0.069963 -0.376726
vn -0.864998 0.302551 -0.400301
vn 0.116417 0.990630 -0.071409
vn 0.620092 0.706342 0.341418
vn 0.207378 0.977058 -0.048501
vn -0.504964 0.774804 -0.380382
vn 0.116417 0.990630 -0.071409
vn 0.207378 0.977058 -0.048501
vn -0.504964 0.774804 -0.380382
vn 0.207378 0.977058 -0.048501
vn -0.522405 0.796327 -0.304886
vn -0.864998 0.302551 -0.400301
vn -0.504964 0.774804 -0.380382
vn -0.522405 0.796327 -0.304886
vn 0.070518 -0.734411 0.675032
vn 0.066002 -0.749952 0.658192
vn -0.823885 -0.566503 -0.016976
vn -0.672795 -0.732919 0.100882
vn 0.070518 -0.734411 0.675032
vn -0.823885 -0.566503 -0.016976
vn -0.672795 -0.732919 0.100882
vn -0.823885 -0.566503 -0.016976
vn -0.923679 -0.069963 -0.376726
vn -0.905254 -0.223903 -0.361085
vn -0.672795 -0.732919 0.100882
vn -0.923679 -0.069963 -0.376726
vn -0.787195 0.518061 -0.334570
vn -0.823946 0.564975 -0.043773
vn -0.507718 0.824951 -0.248351
vn -0.504964 0.774804 -0.380382
vn -0.787195 0.518061 -0.334570
vn -0.507718 0.824951 -0.248351
vn -0.504964 0.774804 -0.380382
vn -0.507718 0.824951 -0.248351
vn 0.116417 0.990630 -0.071409
vn 0.055798 -0.776403 0.627762
vn 0.070518 -0.734411 0.675032
vn -0.672795 -0.732919 0.100882
vn -0.623240 -0.780675 0.046028
vn 0.055798 -0.776403 0.627762
vn -0.672795 -0.732919 0.100882
vn -0.623240 -0.780675 0.046028
vn -0.672795 -0.732919 0.100882
vn -0.905254 -0.223903 -0.361085
vn -0.504964 0.774804 -0.380382
vn -0.864998 0.302551 -0.400301
vn -0.807843 0.373088 -0.456285
vn -0.787195 0.518061 -0.334570
vn -0.504964 0.774804 -0.380382
vn -0.807843 0.373088 -0.456285
vn -0.823885 -0.566503 -0.016976
vn -0.967319 0.218285 -0.129016
vn -0.944983 0.075983 -0.318174
vn -0.923679 -0.069963 -0.376726
vn -0.823885 -0.566503 -0.016976
vn -0.944983 0.075983 -0.318174
vn -0.718653 0.639777 -0.272441
vn 0.145125 0.981771 -0.122736
vn -0.445963 0.858275 0.253930
vn 0.145125 0.981771 -0.122736
vn -0.008343 0.825501 0.564339
vn -0.445963 0.858275 0.253930
vn -0.008343 0.825501 0.564339
vn -0.755029 0.327528 0.568029
vn -0.445963 0.858275 0.253930
vn -0.755029 0.327528 0.568029
vn -0.883414 0.445113 -0.146471
vn -0.445963 0.858275 0.253930
vn 0.503221 -0.278186 0.818157
vn 0.475512 -0.470860 0.743088
vn 0.508989 -0.129256 0.851013
s off
g default1
usemtl Pikachu_PikachuDh_PikachuDh_png2
f 41/1/1 10/2/2 1/3/3
f 12/4/4 9/5/5 11/6/6
f 2/7/7 3/8/8 6/9/9
f 3/8/10 8/10/11 6/11/12
f 7/12/13 40/13/14 4/14/15
f 40/13/16 39/15/17 4/16/18
f 41/17/19 1/3/20 15/18/21
f 1/3/22 5/19/23 15/20/24
f 1/3/25 10/21/26 5/22/27
f 10/23/28 38/24/29 5/25/30
f 2/26/31 6/27/32 4/28/33
f 6/29/34 7/12/35 4/30/36
f 6/31/37 8/10/38 7/12/39
f 8/10/40 17/32/41 7/12/42
f 8/10/43 3/8/44 17/33/45
f 3/8/46 16/34/47 17/35/48
f 38/36/49 10/37/50 9/38/51
f 10/39/52 11/40/53 9/41/54
f 10/42/55 41/43/56 11/44/57
f 41/45/58 12/46/59 11/47/60
f 41/48/61 13/49/62 12/50/63
f 13/49/64 9/51/65 12/52/66
f 13/49/67 37/53/68 9/54/69
f 37/53/70 14/55/71 9/56/72
f 33/57/73 15/58/74 3/8/75
f 15/59/76 16/60/77 3/8/78
f 15/61/79 5/62/80 16/63/81
f 5/64/82 17/65/83 16/66/84
f 5/67/85 38/68/86 17/69/87
f 38/70/88 7/12/89 17/71/90
f 38/72/91 14/55/92 7/12/93
f 14/55/94 40/13/95 7/12/96
f 24/73/97 55/74/98 56/75/99
f 18/76/100 24/73/101 56/77/102
f 64/78/103 63/79/104 28/80/105
f 18/76/106 64/81/107 28/80/108
f 27/82/109 62/83/110 61/84/111
f 22/85/112 46/86/113 19/87/114
f 20/88/115 22/85/116 19/87/117
f 20/88/118 19/87/119 45/89/120
f 21/90/121 20/88/122 45/89/123
f 21/90/124 45/89/125 35/91/126
f 29/92/127 21/90/128 35/91/129
f 22/85/130 54/93/131 60/94/132
f 59/95/133 22/85/134 60/96/135
f 59/95/136 58/97/137 23/98/138
f 25/99/139 59/100/140 23/98/141
f 25/99/142 23/98/143 51/101/144
f 46/86/145 25/99/146 51/101/147
f 50/102/148 51/101/149 23/98/150
f 26/103/151 50/102/152 23/98/153
f 26/103/154 23/98/155 58/104/156
f 57/105/157 26/103/158 58/97/159
f 49/106/160 50/102/161 26/103/162
f 24/73/163 49/106/164 26/103/165
f 24/73/166 26/103/167 55/107/168
f 18/76/169 28/80/170 31/108/171
f 24/73/172 18/76/173 31/108/174
f 24/73/175 31/108/176 49/106/177
f 22/85/178 59/100/179 25/99/180
f 46/86/181 22/85/182 25/99/183
f 28/80/184 21/90/185 29/92/186
f 31/108/187 28/80/188 29/92/189
f 55/74/190 26/103/191 57/105/192
f 27/109/193 20/88/194 21/90/195
f 63/110/196 27/111/197 21/90/198
f 63/110/199 21/90/200 28/80/201
f 27/82/202 63/112/203 62/113/204
f 31/108/205 29/92/206 30/114/207
f 32/115/208 31/108/209 30/114/210
f 32/115/211 30/114/212 40/13/213
f 14/55/214 32/115/215 40/13/216
f 33/116/217 3/8/218 2/117/219
f 44/118/220 33/119/221 2/120/222
f 44/121/223 2/122/224 34/123/225
f 35/91/226 44/124/227 34/125/228
f 35/91/229 34/126/230 30/114/231
f 29/92/232 35/91/233 30/114/234
f 49/106/235 31/108/236 32/115/237
f 36/127/238 49/106/239 32/115/240
f 36/127/241 32/115/242 14/55/243
f 37/53/244 36/127/245 14/55/246
f 38/128/247 9/129/248 14/55/249
f 2/130/250 4/131/251 39/132/252
f 34/133/253 2/134/254 39/135/255
f 34/136/256 39/137/257 40/13/258
f 30/114/259 34/138/260 40/13/261
f 41/139/262 15/140/263 42/141/264
f 53/142/265 41/143/266 42/144/267
f 53/145/268 42/146/269 52/147/270
f 43/148/271 53/149/272 52/150/273
f 43/148/274 52/151/275 46/86/276
f 51/101/277 43/148/278 46/86/279
f 44/152/280 35/91/281 45/89/282
f 47/153/283 44/154/284 45/89/285
f 47/155/286 45/89/287 19/87/288
f 46/86/289 47/156/290 19/87/291
f 36/127/292 37/53/293 13/49/294
f 48/157/295 36/127/296 13/49/297
f 48/158/298 13/49/299 43/148/300
f 51/101/301 48/159/302 43/148/303
f 42/160/304 15/161/305 33/162/306
f 47/163/307 42/164/308 33/165/309
f 47/166/310 33/167/311 44/168/312
f 49/106/313 36/127/314 48/169/315
f 50/102/316 49/106/317 48/170/318
f 50/102/319 48/171/320 51/101/321
f 47/172/322 46/86/323 52/173/324
f 42/174/325 47/175/326 52/176/327
f 13/49/328 41/177/329 53/178/330
f 43/148/331 13/49/332 53/179/333
f 22/85/334 20/88/335 54/93/336
f 20/88/337 27/180/338 54/93/339
f 27/82/340 61/181/341 54/182/342
f 61/183/343 60/184/344 54/185/345
f 18/76/346 56/75/347 64/78/348
