# This file uses centimeters as units for non-parametric coordinates.

mtllib brazoIzq.mtl
g default
v 0.323378 0.346931 0.423663
v 0.373749 0.279022 0.434152
v 0.385910 0.342154 0.433073
v 0.357233 0.355836 0.417367
v 0.365015 0.339838 0.449581
v 0.379177 0.317370 0.447690
v 0.399437 0.322816 0.449688
v 0.413071 0.317396 0.433302
v 0.393341 0.294902 0.445800
v 0.417755 0.293729 0.446589
v 0.409924 0.274619 0.440681
v 0.427866 0.281753 0.427526
v 0.428333 0.258091 0.441959
v 0.409039 0.229145 0.378017
v 0.429211 0.247332 0.426631
v 0.297792 0.311620 0.132294
v 0.198380 0.298639 0.282000
v 0.235472 0.270301 0.345637
v 0.269032 0.216404 0.342752
v 0.193026 0.196830 0.291176
v 0.261166 0.333015 0.235672
v 0.259291 0.324203 0.203014
v 0.311499 0.309492 0.186366
v 0.355364 0.270844 0.245003
v 0.282240 0.340607 0.285441
v 0.327984 0.241309 0.175054
v 0.361361 0.175509 0.305796
v 0.283682 0.120782 0.243701
v 0.231506 0.148754 0.284688
v 0.178045 0.164132 0.263455
v 0.215645 0.119108 0.250212
v 0.274303 0.092034 0.186347
v 0.304987 0.146475 0.129115
v 0.321627 0.172683 0.184529
v 0.314217 0.229120 0.108294
v 0.315891 0.342306 0.391706
v 0.265787 0.324503 0.356902
v 0.339674 0.355615 0.373808
v 0.303238 0.344746 0.313604
v 0.340015 0.330055 0.291014
v 0.367901 0.341325 0.363652
v 0.341337 0.320506 0.428499
v 0.341446 0.255472 0.398671
v 0.376215 0.221992 0.395676
v 0.408316 0.248354 0.433428
v 0.331455 0.189466 0.358866
v 0.265444 0.279111 0.364381
v 0.315422 0.301195 0.401951
v 0.241905 0.317662 0.329977
v 0.324106 0.322586 0.256375
v 0.295397 0.226027 0.362126
v 0.377941 0.190870 0.331529
v 0.385555 0.234128 0.295925
v 0.371216 0.220568 0.263723
v 0.368141 0.287244 0.282818
v 0.396936 0.314163 0.357806
v 0.414978 0.270446 0.365489
v 0.307312 0.177136 0.338802
v 0.163286 0.290876 0.270383
v 0.174143 0.257372 0.285726
v 0.159595 0.223632 0.277355
v 0.208115 0.309809 0.244630
v 0.208956 0.342099 0.230123
v 0.257915 0.352425 0.187816
vt 0.135315 0.800140
vt 0.148773 0.815948
vt 0.130920 0.838226
vt 0.150513 0.800537
vt 0.151581 0.786957
vt 0.171051 0.808655
vt 0.174500 0.892059
vt 0.180389 0.908661
vt 0.148041 0.900787
vt 0.138489 0.912018
vt 0.202240 0.873138
vt 0.177490 0.869446
vt 0.180176 0.839203
vt 0.177490 0.869446
vt 0.166718 0.852051
vt 0.147736 0.838165
vt 0.151154 0.859924
vt 0.163208 0.825592
vt 0.137482 0.880951
vt 0.156982 0.876892
vt 0.137482 0.880951
vt 0.114716 0.880737
vt 0.137482 0.880951
vt 0.137482 0.880951
vt 0.137482 0.880951
vt 0.156982 0.876892
vt 0.156982 0.876892
vt 0.177490 0.869446
vt 0.156982 0.876892
vt 0.177490 0.869446
vt 0.177490 0.869446
vt 0.163208 0.825592
vt 0.163208 0.825592
vt 0.163208 0.825592
vt 0.152130 0.780029
vt 0.152130 0.780029
vt 0.152130 0.780029
vt 0.189087 0.796967
vt 0.206024 0.837006
vt 0.550110 0.643250
vt 0.551331 0.633728
vt 0.601776 0.620361
vt 0.119904 0.946198
vt 0.196014 0.941895
vt 0.098511 0.973755
vt 0.063568 0.897797
vt 0.119904 0.946198
vt 0.098511 0.973755
vt 0.063568 0.897797
vt 0.098511 0.973755
vt 0.035645 0.910706
vt 0.059753 0.833038
vt 0.063568 0.897797
vt 0.035645 0.910706
vt 0.059753 0.833038
vt 0.035645 0.910706
vt 0.030304 0.828278
vt 0.057892 0.747620
vt 0.059753 0.833038
vt 0.030304 0.828278
vt 0.222046 0.989471
vt 0.091125 0.996460
vt 0.211700 0.963348
vt 0.281708 0.903809
vt 0.222046 0.989471
vt 0.211700 0.963348
vt 0.281708 0.903809
vt 0.211700 0.963348
vt 0.247498 0.886841
vt 0.253906 0.830170
vt 0.281708 0.903809
vt 0.247498 0.886841
vt 0.314606 0.920990
vt 0.222046 0.989471
vt 0.281708 0.903809
vt 0.313446 0.812500
vt 0.314606 0.920990
vt 0.281708 0.903809
vt 0.313446 0.812500
vt 0.281708 0.903809
vt 0.287354 0.821350
vt 0.287354 0.821350
vt 0.281708 0.903809
vt 0.253906 0.830170
vt 0.221375 0.771942
vt 0.287354 0.821350
vt 0.253906 0.830170
vt 0.196014 0.941895
vt 0.247498 0.886841
vt 0.211700 0.963348
vt 0.098511 0.973755
vt 0.196014 0.941895
vt 0.211700 0.963348
vt 0.244934 0.747192
vt 0.287354 0.821350
vt 0.221375 0.771942
vt 0.152130 0.739197
vt 0.244934 0.747192
vt 0.221375 0.771942
vt 0.153961 0.712433
vt 0.244934 0.747192
vt 0.152130 0.739197
vt 0.078522 0.769958
vt 0.153961 0.712433
vt 0.152130 0.739197
vt 0.057892 0.747620
vt 0.153961 0.712433
vt 0.078522 0.769958
vt 0.059753 0.833038
vt 0.057892 0.747620
vt 0.078522 0.769958
vt 0.502625 0.629364
vt 0.030304 0.828278
vt 0.006104 0.905579
vt 0.003265 0.822052
vt 0.057892 0.747620
vt 0.030304 0.828278
vt 0.003265 0.822052
vt 0.057892 0.747620
vt 0.003265 0.822052
vt 0.038147 0.722046
vt 0.153961 0.712433
vt 0.057892 0.747620
vt 0.038147 0.722046
vt 0.153961 0.712433
vt 0.038147 0.722046
vt 0.152985 0.677917
vt 0.275330 0.724640
vt 0.153961 0.712433
vt 0.152985 0.677917
vt 0.244934 0.747192
vt 0.153961 0.712433
vt 0.275330 0.724640
vt 0.313446 0.812500
vt 0.244934 0.747192
vt 0.275330 0.724640
vt 0.244934 0.747192
vt 0.313446 0.812500
vt 0.287354 0.821350
vt 0.253906 0.830170
vt 0.247498 0.886841
vt 0.233978 0.883881
vt 0.238007 0.833618
vt 0.253906 0.830170
vt 0.114716 0.880737
vt 0.126190 0.932709
vt 0.114716 0.880737
vt 0.189667 0.930176
vt 0.137482 0.880951
vt 0.106598 0.836273
vt 0.106598 0.836273
vt 0.106598 0.836273
vt 0.116333 0.792725
vt 0.152130 0.780029
vt 0.116333 0.792725
vt 0.152130 0.780029
vt 0.116333 0.792725
vt 0.088257 0.776306
vt 0.152130 0.750366
vt 0.152130 0.780029
vt 0.088257 0.776306
vt 0.088257 0.776306
vt 0.078522 0.769958
vt 0.152130 0.739197
vt 0.078522 0.769958
vt 0.079468 0.891815
vt 0.114716 0.880737
vt 0.119904 0.946198
vt 0.079468 0.891815
vt 0.119904 0.946198
vt 0.196014 0.941895
vt 0.119904 0.946198
vt 0.196014 0.941895
vt 0.247498 0.886841
vt 0.196014 0.941895
vt 0.106598 0.836273
vt 0.137482 0.880951
vt 0.114716 0.880737
vt 0.072449 0.834229
vt 0.106598 0.836273
vt 0.114716 0.880737
vt 0.072449 0.834229
vt 0.114716 0.880737
vt 0.079468 0.891815
vt 0.059753 0.833038
vt 0.072449 0.834229
vt 0.079468 0.891815
vt 0.059753 0.833038
vt 0.079468 0.891815
vt 0.063568 0.897797
vt 0.152130 0.739197
vt 0.221375 0.771942
vt 0.213837 0.779755
vt 0.221375 0.771942
vt 0.213837 0.779755
vt 0.221375 0.771942
vt 0.253906 0.830170
vt 0.213837 0.779755
vt 0.253906 0.830170
vt 0.152130 0.780029
vt 0.213837 0.779755
vt 0.152130 0.780029
vt 0.213837 0.779755
vt 0.213837 0.779755
vt 0.177490 0.869446
vt 0.177490 0.869446
vt 0.088257 0.776306
vt 0.116333 0.792725
vt 0.106598 0.836273
vt 0.072449 0.834229
vt 0.088257 0.776306
vt 0.106598 0.836273
vt 0.072449 0.834229
vt 0.059753 0.833038
vt 0.078522 0.769958
vt 0.088257 0.776306
vt 0.072449 0.834229
vt 0.078522 0.769958
vt 0.063568 0.897797
vt 0.079468 0.891815
vt 0.119904 0.946198
vt 0.030304 0.828278
vt 0.035645 0.910706
vt 0.006104 0.905579
vt 0.035645 0.910706
vt 0.017761 0.946472
vt 0.006104 0.905579
vt 0.035645 0.910706
vt 0.098511 0.973755
vt 0.017761 0.946472
vt 0.017761 0.946472
vt 0.098511 0.973755
vt 0.098511 0.973755
vt 0.211700 0.963348
vt 0.550110 0.643250
vt 0.498932 0.639252
vt 0.502625 0.629364
vt 0.498932 0.639252
vt 0.460419 0.618591
vt 0.502625 0.629364
vn -0.179455 -0.691208 0.700020
vn -0.006013 -0.208339 0.978038
vn -0.463954 -0.390161 0.795312
vn 0.581557 -0.136434 0.801983
vn 0.885491 -0.451453 -0.109982
vn 0.967318 0.218283 -0.129027
vn 0.027995 0.975094 0.220020
vn 0.005431 0.995035 -0.099376
vn -0.590191 0.519534 0.617867
vn 0.005431 0.995035 -0.099376
vn -0.692081 0.607605 0.389666
vn -0.590191 0.519534 0.617867
vn 0.507719 0.824951 -0.248349
vn 0.574332 0.817493 0.042980
vn 0.823948 0.564972 -0.043775
vn 0.574332 0.817493 0.042980
vn 0.433371 0.338110 0.835387
vn 0.823948 0.564972 -0.043775
vn -0.463954 -0.390161 0.795312
vn -0.092350 -0.193286 0.976787
vn -0.285489 -0.112253 0.951785
vn -0.463954 -0.390161 0.795312
vn -0.006013 -0.208339 0.978038
vn -0.092350 -0.193286 0.976787
vn -0.006013 -0.208339 0.978038
vn 0.544901 0.173802 0.820290
vn -0.092350 -0.193286 0.976787
vn -0.463954 -0.390161 0.795312
vn -0.285489 -0.112253 0.951785
vn -0.538208 -0.172414 0.824988
vn -0.285489 -0.112253 0.951785
vn -0.330723 0.414094 0.848026
vn -0.538208 -0.172414 0.824988
vn -0.588181 -0.160868 0.792568
vn -0.538208 -0.172414 0.824988
vn -0.590191 0.519534 0.617867
vn -0.538208 -0.172414 0.824988
vn 0.027995 0.975094 0.220020
vn -0.590191 0.519534 0.617867
vn -0.538208 -0.172414 0.824988
vn -0.330723 0.414094 0.848026
vn 0.027995 0.975094 0.220020
vn -0.330723 0.414094 0.848026
vn 0.574332 0.817493 0.042980
vn 0.027995 0.975094 0.220020
vn -0.330723 0.414094 0.848026
vn -0.285489 -0.112253 0.951785
vn 0.574332 0.817493 0.042980
vn -0.285489 -0.112253 0.951785
vn 0.433371 0.338110 0.835387
vn 0.574332 0.817493 0.042980
vn -0.285489 -0.112253 0.951785
vn -0.092350 -0.193286 0.976787
vn 0.433371 0.338110 0.835387
vn -0.092350 -0.193286 0.976787
vn 0.823948 0.564972 -0.043775
vn 0.433371 0.338110 0.835387
vn -0.092350 -0.193286 0.976787
vn 0.544901 0.173802 0.820290
vn 0.823948 0.564972 -0.043775
vn 0.544901 0.173802 0.820290
vn 0.967318 0.218283 -0.129027
vn 0.823948 0.564972 -0.043775
vn 0.544901 0.173802 0.820290
vn -0.006013 -0.208339 0.978038
vn 0.967318 0.218283 -0.129027
vn -0.006013 -0.208339 0.978038
vn 0.581557 -0.136434 0.801983
vn 0.967318 0.218283 -0.129027
vn -0.006013 -0.208339 0.978038
vn -0.179455 -0.691208 0.700020
vn 0.581557 -0.136434 0.801983
vn -0.179455 -0.691208 0.700020
vn 0.885491 -0.451453 -0.109982
vn 0.581557 -0.136434 0.801983
vn -0.179455 -0.691208 0.700020
vn 0.823887 -0.566499 -0.016998
vn 0.885491 -0.451453 -0.109982
vn 0.823887 -0.566499 -0.016998
vn 0.967318 0.218283 -0.129027
vn 0.885491 -0.451453 -0.109982
vn 0.823887 -0.566499 -0.016998
vn 0.944981 0.075981 -0.318178
vn 0.967318 0.218283 -0.129027
vn 0.944981 0.075981 -0.318178
vn 0.787197 0.518059 -0.334568
vn 0.967318 0.218283 -0.129027
vn 0.755114 0.327395 0.567992
vn 0.445892 0.858319 0.253909
vn 0.883342 0.445230 -0.146550
vn -0.620101 0.706338 0.341411
vn -0.207376 0.977058 -0.048506
vn -0.568800 0.722961 0.392166
vn -0.651944 -0.108229 0.750504
vn -0.620101 0.706338 0.341411
vn -0.568800 0.722961 0.392166
vn -0.651944 -0.108229 0.750504
vn -0.568800 0.722961 0.392166
vn -0.612248 0.045168 0.789375
vn -0.472871 -0.380292 0.794840
vn -0.651944 -0.108229 0.750504
vn -0.612248 0.045168 0.789375
vn -0.472871 -0.380292 0.794840
vn -0.612248 0.045168 0.789375
vn -0.503110 -0.278172 0.818230
vn -0.237390 -0.679235 0.694468
vn -0.472871 -0.380292 0.794840
vn -0.503110 -0.278172 0.818230
vn 0.445892 0.858319 0.253909
vn 0.008325 0.825493 0.564351
vn -0.145092 0.981780 -0.122705
vn 0.718635 0.639790 -0.272457
vn 0.445892 0.858319 0.253909
vn -0.145092 0.981780 -0.122705
vn 0.718635 0.639790 -0.272457
vn -0.145092 0.981780 -0.122705
vn 0.522401 0.796328 -0.304891
vn 0.864996 0.302544 -0.400312
vn 0.718635 0.639790 -0.272457
vn 0.522401 0.796328 -0.304891
vn 0.883342 0.445230 -0.146550
vn 0.445892 0.858319 0.253909
vn 0.718635 0.639790 -0.272457
vn 0.975708 0.029412 -0.217091
vn 0.883342 0.445230 -0.146550
vn 0.718635 0.639790 -0.272457
vn 0.975708 0.029412 -0.217091
vn 0.718635 0.639790 -0.272457
vn 0.935862 0.070035 -0.345336
vn 0.935862 0.070035 -0.345336
vn 0.718635 0.639790 -0.272457
vn 0.864996 0.302544 -0.400312
vn 0.905256 -0.223896 -0.361085
vn 0.935862 0.070035 -0.345336
vn 0.864996 0.302544 -0.400312
vn -0.207376 0.977058 -0.048506
vn 0.522401 0.796328 -0.304891
vn -0.145092 0.981780 -0.122705
vn -0.568800 0.722961 0.392166
vn -0.207376 0.977058 -0.048506
vn -0.145092 0.981780 -0.122705
vn 0.874452 -0.435577 -0.213558
vn 0.935862 0.070035 -0.345336
vn 0.905256 -0.223896 -0.361085
vn 0.623241 -0.780674 0.046035
vn 0.874452 -0.435577 -0.213558
vn 0.905256 -0.223896 -0.361085
vn 0.460185 -0.861630 0.214064
vn 0.874452 -0.435577 -0.213558
vn 0.623241 -0.780674 0.046035
vn -0.055797 -0.776396 0.627770
vn 0.460185 -0.861630 0.214064
vn 0.623241 -0.780674 0.046035
vn -0.237390 -0.679235 0.694468
vn 0.460185 -0.861630 0.214064
vn -0.055797 -0.776396 0.627770
vn -0.472871 -0.380292 0.794840
vn -0.237390 -0.679235 0.694468
vn -0.055797 -0.776396 0.627770
vn 0.008325 0.825493 0.564351
vn 0.445892 0.858319 0.253909
vn 0.755114 0.327395 0.567992
vn -0.503110 -0.278172 0.818230
vn -0.508423 -0.129090 0.851377
vn -0.475329 -0.470786 0.743252
vn -0.237390 -0.679235 0.694468
vn -0.503110 -0.278172 0.818230
vn -0.475329 -0.470786 0.743252
vn -0.237390 -0.679235 0.694468
vn -0.475329 -0.470786 0.743252
vn -0.076620 -0.788999 0.609599
vn 0.460185 -0.861630 0.214064
vn -0.237390 -0.679235 0.694468
vn -0.076620 -0.788999 0.609599
vn 0.460185 -0.861630 0.214064
vn -0.076620 -0.788999 0.609599
vn 0.749857 -0.632403 0.194373
vn 0.933433 -0.347913 -0.087515
vn 0.460185 -0.861630 0.214064
vn 0.749857 -0.632403 0.194373
vn 0.874452 -0.435577 -0.213558
vn 0.460185 -0.861630 0.214064
vn 0.933433 -0.347913 -0.087515
vn 0.975708 0.029412 -0.217091
vn 0.874452 -0.435577 -0.213558
vn 0.933433 -0.347913 -0.087515
vn 0.874452 -0.435577 -0.213558
vn 0.975708 0.029412 -0.217091
vn 0.935862 0.070035 -0.345336
vn 0.864996 0.302544 -0.400312
vn 0.522401 0.796328 -0.304891
vn 0.504968 0.774799 -0.380386
vn 0.807850 0.373071 -0.456285
vn 0.864996 0.302544 -0.400312
vn 0.504968 0.774799 -0.380386
vn 0.807850 0.373071 -0.456285
vn 0.504968 0.774799 -0.380386
vn 0.787197 0.518059 -0.334568
vn 0.944981 0.075981 -0.318178
vn 0.807850 0.373071 -0.456285
vn 0.787197 0.518059 -0.334568
vn -0.588181 -0.160868 0.792568
vn -0.590191 0.519534 0.617867
vn -0.692081 0.607605 0.389666
vn -0.614873 0.638921 0.462290
vn -0.588181 -0.160868 0.792568
vn -0.692081 0.607605 0.389666
vn -0.614873 0.638921 0.462290
vn -0.692081 0.607605 0.389666
vn 0.005431 0.995035 -0.099376
vn -0.116412 0.990631 -0.071411
vn -0.614873 0.638921 0.462290
vn 0.005431 0.995035 -0.099376
vn -0.116412 0.990631 -0.071411
vn 0.005431 0.995035 -0.099376
vn 0.507719 0.824951 -0.248349
vn 0.504968 0.774799 -0.380386
vn -0.116412 0.990631 -0.071411
vn 0.507719 0.824951 -0.248349
vn 0.504968 0.774799 -0.380386
vn 0.507719 0.824951 -0.248349
vn 0.787197 0.518059 -0.334568
vn -0.463954 -0.390161 0.795312
vn -0.538208 -0.172414 0.824988
vn -0.445696 -0.403612 0.799033
vn -0.179455 -0.691208 0.700020
vn -0.463954 -0.390161 0.795312
vn -0.445696 -0.403612 0.799033
vn -0.179455 -0.691208 0.700020
vn -0.445696 -0.403612 0.799033
vn -0.066009 -0.749951 0.658191
vn 0.823887 -0.566499 -0.016998
vn -0.179455 -0.691208 0.700020
vn -0.066009 -0.749951 0.658191
vn 0.823887 -0.566499 -0.016998
vn -0.066009 -0.749951 0.658191
vn -0.070523 -0.734408 0.675035
vn 0.672799 -0.732916 0.100873
vn 0.823887 -0.566499 -0.016998
vn -0.070523 -0.734408 0.675035
vn 0.672799 -0.732916 0.100873
vn -0.070523 -0.734408 0.675035
vn -0.055797 -0.776396 0.627770
vn 0.623241 -0.780674 0.046035
vn 0.672799 -0.732916 0.100873
vn -0.055797 -0.776396 0.627770
vn -0.558783 -0.110839 0.821873
vn -0.588181 -0.160868 0.792568
vn -0.614873 0.638921 0.462290
vn -0.620101 0.706338 0.341411
vn -0.558783 -0.110839 0.821873
vn -0.614873 0.638921 0.462290
vn -0.620101 0.706338 0.341411
vn -0.614873 0.638921 0.462290
vn -0.116412 0.990631 -0.071411
vn -0.207376 0.977058 -0.048506
vn -0.620101 0.706338 0.341411
vn -0.116412 0.990631 -0.071411
vn -0.207376 0.977058 -0.048506
vn -0.116412 0.990631 -0.071411
vn 0.504968 0.774799 -0.380386
vn 0.522401 0.796328 -0.304891
vn -0.207376 0.977058 -0.048506
vn 0.504968 0.774799 -0.380386
vn -0.445696 -0.403612 0.799033
vn -0.538208 -0.172414 0.824988
vn -0.588181 -0.160868 0.792568
vn -0.433933 -0.380351 0.816723
vn -0.445696 -0.403612 0.799033
vn -0.588181 -0.160868 0.792568
vn -0.433933 -0.380351 0.816723
vn -0.588181 -0.160868 0.792568
vn -0.558783 -0.110839 0.821873
vn -0.472871 -0.380292 0.794840
vn -0.433933 -0.380351 0.816723
vn -0.558783 -0.110839 0.821873
vn -0.472871 -0.380292 0.794840
vn -0.558783 -0.110839 0.821873
vn -0.651944 -0.108229 0.750504
vn 0.672799 -0.732916 0.100873
vn 0.623241 -0.780674 0.046035
vn 0.905256 -0.223896 -0.361085
vn 0.923681 -0.069969 -0.376720
vn 0.672799 -0.732916 0.100873
vn 0.905256 -0.223896 -0.361085
vn 0.923681 -0.069969 -0.376720
vn 0.905256 -0.223896 -0.361085
vn 0.864996 0.302544 -0.400312
vn 0.807850 0.373071 -0.456285
vn 0.923681 -0.069969 -0.376720
vn 0.864996 0.302544 -0.400312
vn 0.507719 0.824951 -0.248349
vn 0.823948 0.564972 -0.043775
vn 0.787197 0.518059 -0.334568
vn 0.823887 -0.566499 -0.016998
vn 0.672799 -0.732916 0.100873
vn 0.923681 -0.069969 -0.376720
vn 0.944981 0.075981 -0.318178
vn 0.823887 -0.566499 -0.016998
vn 0.923681 -0.069969 -0.376720
vn 0.944981 0.075981 -0.318178
vn 0.923681 -0.069969 -0.376720
vn 0.807850 0.373071 -0.456285
vn 0.574332 0.817493 0.042980
vn 0.507719 0.824951 -0.248349
vn 0.005431 0.995035 -0.099376
vn 0.027995 0.975094 0.220020
vn 0.574332 0.817493 0.042980
vn 0.005431 0.995035 -0.099376
vn -0.070523 -0.734408 0.675035
vn -0.066009 -0.749951 0.658191
vn -0.445696 -0.403612 0.799033
vn -0.433933 -0.380351 0.816723
vn -0.070523 -0.734408 0.675035
vn -0.445696 -0.403612 0.799033
vn -0.433933 -0.380351 0.816723
vn -0.472871 -0.380292 0.794840
vn -0.055797 -0.776396 0.627770
vn -0.070523 -0.734408 0.675035
vn -0.433933 -0.380351 0.816723
vn -0.055797 -0.776396 0.627770
vn 0.823948 0.564972 -0.043775
vn 0.967318 0.218283 -0.129027
vn 0.787197 0.518059 -0.334568
vn -0.651944 -0.108229 0.750504
vn -0.558783 -0.110839 0.821873
vn -0.620101 0.706338 0.341411
vn -0.503110 -0.278172 0.818230
vn -0.612248 0.045168 0.789375
vn -0.508423 -0.129090 0.851377
vn -0.612248 0.045168 0.789375
vn -0.317323 0.540419 0.779264
vn -0.508423 -0.129090 0.851377
vn -0.612248 0.045168 0.789375
vn -0.568800 0.722961 0.392166
vn -0.317323 0.540419 0.779264
vn -0.317323 0.540419 0.779264
vn -0.568800 0.722961 0.392166
vn 0.008325 0.825493 0.564351
vn -0.568800 0.722961 0.392166
vn -0.145092 0.981780 -0.122705
vn 0.008325 0.825493 0.564351
vn 0.755114 0.327395 0.567992
vn 0.534230 0.334816 0.776207
vn 0.008325 0.825493 0.564351
vn 0.534230 0.334816 0.776207
vn -0.317323 0.540419 0.779264
vn 0.008325 0.825493 0.564351
s off
g brazoIzq_default1
usemtl brazoIzq_Pikachu_PikachuDh_PikachuDh_png2
f 45/1/1 11/2/2 2/3/3
f 13/4/4 15/5/5 12/6/6
f 4/7/7 38/8/8 1/9/9
f 38/8/10 36/10/11 1/9/12
f 41/11/13 3/12/14 8/13/15
f 3/14/16 7/15/17 8/13/18
f 2/3/19 9/16/20 6/17/21
f 2/3/22 11/2/23 9/16/24
f 11/2/25 10/18/26 9/16/27
f 2/3/28 6/17/29 42/19/30
f 6/17/31 5/20/32 42/21/33
f 48/22/34 42/23/35 1/9/36
f 42/24/37 4/7/38 1/9/39
f 42/25/40 5/26/41 4/7/42
f 5/27/43 3/28/44 4/7/45
f 5/29/46 6/17/47 3/30/48
f 6/17/49 7/15/50 3/31/51
f 6/17/52 9/16/53 7/15/54
f 9/16/55 8/13/56 7/15/57
f 9/16/58 10/32/59 8/13/60
f 10/33/61 12/6/62 8/13/63
f 10/34/64 11/2/65 12/6/66
f 11/2/67 13/4/68 12/6/69
f 11/2/70 45/1/71 13/4/72
f 45/1/73 15/5/74 13/4/75
f 45/1/76 14/35/77 15/5/78
f 14/36/79 12/6/80 15/5/81
f 14/37/82 57/38/83 12/6/84
f 57/38/85 56/39/86 12/6/87
f 64/40/88 22/41/89 16/42/90
f 49/43/91 25/44/92 17/45/93
f 18/46/94 49/47/95 17/48/96
f 18/49/97 17/50/98 60/51/99
f 19/52/100 18/53/101 60/54/102
f 19/55/103 60/56/104 20/57/105
f 29/58/106 19/59/107 20/60/108
f 22/61/109 62/62/110 21/63/111
f 23/64/112 22/65/113 21/66/114
f 23/67/115 21/68/116 50/69/117
f 24/70/118 23/71/119 50/72/120
f 16/73/121 22/74/122 23/75/123
f 35/76/124 16/77/125 23/78/126
f 35/79/127 23/80/128 26/81/129
f 26/82/130 23/83/131 24/84/132
f 54/85/133 26/86/134 24/87/135
f 25/88/136 50/89/137 21/90/138
f 17/91/139 25/92/140 21/93/141
f 34/94/142 26/95/143 54/96/144
f 27/97/145 34/98/146 54/99/147
f 28/100/148 34/101/149 27/102/150
f 58/103/151 28/104/152 27/105/153
f 29/106/154 28/107/155 58/108/156
f 19/109/157 29/110/158 58/111/159
f 62/112/160 22/41/161 64/40/162
f 20/113/163 61/114/164 30/115/165
f 29/116/166 20/117/167 30/118/168
f 29/119/169 30/120/170 31/121/171
f 28/122/172 29/123/173 31/124/174
f 28/125/175 31/126/176 32/127/177
f 33/128/178 28/129/179 32/130/180
f 34/131/181 28/132/182 33/133/183
f 35/134/184 34/135/185 33/136/186
f 34/137/187 35/138/188 26/139/189
f 24/140/190 50/141/191 40/142/192
f 55/143/193 24/144/194 40/142/195
f 55/143/196 40/142/197 56/39/198
f 57/38/199 55/143/200 56/39/201
f 48/145/202 1/9/203 36/10/204
f 37/146/205 48/147/206 36/10/207
f 37/146/208 36/10/209 38/8/210
f 39/148/211 37/146/212 38/8/213
f 39/148/214 38/8/215 41/11/216
f 40/142/217 39/148/218 41/11/219
f 40/142/220 41/11/221 56/39/222
f 2/3/223 42/149/224 43/150/225
f 45/1/226 2/3/227 43/151/228
f 45/1/229 43/152/230 44/153/231
f 14/154/232 45/1/233 44/155/234
f 14/156/235 44/157/236 46/158/237
f 52/159/238 14/160/239 46/161/240
f 52/159/241 46/162/242 58/163/243
f 27/164/244 52/159/245 58/165/246
f 47/166/247 48/167/248 37/146/249
f 49/168/250 47/169/251 37/146/252
f 49/170/253 37/146/254 39/148/255
f 25/171/256 49/172/257 39/148/258
f 25/173/259 39/148/260 40/142/261
f 50/174/262 25/175/263 40/142/264
f 43/176/265 42/177/266 48/178/267
f 51/179/268 43/180/269 48/181/270
f 51/182/271 48/183/272 47/184/273
f 19/185/274 51/186/275 47/187/276
f 19/188/277 47/189/278 18/190/279
f 52/159/280 27/191/281 54/192/282
f 53/193/283 52/159/284 54/194/285
f 53/195/286 54/196/287 24/197/288
f 55/143/289 53/198/290 24/199/291
f 41/11/292 8/13/293 56/39/294
f 14/200/295 52/159/296 53/201/297
f 57/38/298 14/202/299 53/203/300
f 57/38/301 53/204/302 55/143/303
f 3/205/304 41/11/305 38/8/306
f 4/7/307 3/206/308 38/8/309
f 46/207/310 44/208/311 43/209/312
f 51/210/313 46/211/314 43/212/315
f 51/213/316 19/214/317 58/215/318
f 46/216/319 51/217/320 58/218/321
f 8/13/322 12/6/323 56/39/324
f 18/219/325 47/220/326 49/221/327
f 20/222/328 60/223/329 61/224/330
f 60/225/331 59/226/332 61/227/333
f 60/228/334 17/229/335 59/230/336
f 59/231/337 17/232/338 62/62/339
f 17/233/340 21/234/341 62/62/342
f 64/235/343 63/236/344 62/237/345
f 63/238/346 59/239/347 62/240/348
